ISO-10303-21;
HEADER;
/* Generated by software containing ST-Developer
 * from STEP Tools, Inc. (www.steptools.com) 
 */

FILE_DESCRIPTION(
/* description */ (''),
/* implementation_level */ '2;1');

FILE_NAME(
/* name */ 'Battery.step',
/* time_stamp */ '2026-09-06T09:31:05+02:00',
/* author */ (''),
/* organization */ (''),
/* preprocessor_version */ 'ST-DEVELOPER v20.2',
/* originating_system */ 'Autodesk Translation Framework v15.15.0.0',
/* authorisation */ '');

FILE_SCHEMA (('AUTOMOTIVE_DESIGN { 1 0 10303 214 3 1 1 }'));
ENDSEC;

DATA;
#10=MECHANICAL_DESIGN_GEOMETRIC_PRESENTATION_REPRESENTATION('',(#13),#1668);
#11=SHAPE_REPRESENTATION_RELATIONSHIP('SRR','None',#1675,#12);
#12=ADVANCED_BREP_SHAPE_REPRESENTATION('',(#14),#1667);
#13=STYLED_ITEM('',(#1684),#14);
#14=MANIFOLD_SOLID_BREP('Battery',#980);
#15=FACE_BOUND('',#157,.T.);
#16=FACE_BOUND('',#158,.T.);
#17=FACE_BOUND('',#159,.T.);
#18=TOROIDAL_SURFACE('',#1010,4.99999999999999,1.);
#19=TOROIDAL_SURFACE('',#1016,4.99999999999999,1.);
#20=TOROIDAL_SURFACE('',#1022,4.99999999999999,1.);
#21=TOROIDAL_SURFACE('',#1028,4.99999999999999,1.);
#22=PLANE('',#997);
#23=PLANE('',#1001);
#24=PLANE('',#1005);
#25=PLANE('',#1006);
#26=PLANE('',#1033);
#27=PLANE('',#1036);
#28=PLANE('',#1037);
#29=PLANE('',#1038);
#30=PLANE('',#1039);
#31=PLANE('',#1040);
#32=PLANE('',#1041);
#33=PLANE('',#1042);
#34=PLANE('',#1043);
#35=PLANE('',#1044);
#36=PLANE('',#1045);
#37=PLANE('',#1053);
#38=PLANE('',#1056);
#39=PLANE('',#1062);
#40=PLANE('',#1065);
#41=PLANE('',#1066);
#42=PLANE('',#1067);
#43=PLANE('',#1068);
#44=PLANE('',#1072);
#45=PLANE('',#1074);
#46=PLANE('',#1079);
#47=PLANE('',#1082);
#48=PLANE('',#1085);
#49=PLANE('',#1086);
#50=PLANE('',#1087);
#51=PLANE('',#1088);
#52=PLANE('',#1089);
#53=FACE_OUTER_BOUND('',#107,.T.);
#54=FACE_OUTER_BOUND('',#108,.T.);
#55=FACE_OUTER_BOUND('',#109,.T.);
#56=FACE_OUTER_BOUND('',#110,.T.);
#57=FACE_OUTER_BOUND('',#111,.T.);
#58=FACE_OUTER_BOUND('',#112,.T.);
#59=FACE_OUTER_BOUND('',#113,.T.);
#60=FACE_OUTER_BOUND('',#114,.T.);
#61=FACE_OUTER_BOUND('',#115,.T.);
#62=FACE_OUTER_BOUND('',#116,.T.);
#63=FACE_OUTER_BOUND('',#117,.T.);
#64=FACE_OUTER_BOUND('',#118,.T.);
#65=FACE_OUTER_BOUND('',#119,.T.);
#66=FACE_OUTER_BOUND('',#120,.T.);
#67=FACE_OUTER_BOUND('',#121,.T.);
#68=FACE_OUTER_BOUND('',#122,.T.);
#69=FACE_OUTER_BOUND('',#123,.T.);
#70=FACE_OUTER_BOUND('',#124,.T.);
#71=FACE_OUTER_BOUND('',#125,.T.);
#72=FACE_OUTER_BOUND('',#126,.T.);
#73=FACE_OUTER_BOUND('',#127,.T.);
#74=FACE_OUTER_BOUND('',#128,.T.);
#75=FACE_OUTER_BOUND('',#129,.T.);
#76=FACE_OUTER_BOUND('',#130,.T.);
#77=FACE_OUTER_BOUND('',#131,.T.);
#78=FACE_OUTER_BOUND('',#132,.T.);
#79=FACE_OUTER_BOUND('',#133,.T.);
#80=FACE_OUTER_BOUND('',#134,.T.);
#81=FACE_OUTER_BOUND('',#135,.T.);
#82=FACE_OUTER_BOUND('',#136,.T.);
#83=FACE_OUTER_BOUND('',#137,.T.);
#84=FACE_OUTER_BOUND('',#138,.T.);
#85=FACE_OUTER_BOUND('',#139,.T.);
#86=FACE_OUTER_BOUND('',#140,.T.);
#87=FACE_OUTER_BOUND('',#141,.T.);
#88=FACE_OUTER_BOUND('',#142,.T.);
#89=FACE_OUTER_BOUND('',#143,.T.);
#90=FACE_OUTER_BOUND('',#144,.T.);
#91=FACE_OUTER_BOUND('',#145,.T.);
#92=FACE_OUTER_BOUND('',#146,.T.);
#93=FACE_OUTER_BOUND('',#147,.T.);
#94=FACE_OUTER_BOUND('',#148,.T.);
#95=FACE_OUTER_BOUND('',#149,.T.);
#96=FACE_OUTER_BOUND('',#150,.T.);
#97=FACE_OUTER_BOUND('',#151,.T.);
#98=FACE_OUTER_BOUND('',#152,.T.);
#99=FACE_OUTER_BOUND('',#153,.T.);
#100=FACE_OUTER_BOUND('',#154,.T.);
#101=FACE_OUTER_BOUND('',#155,.T.);
#102=FACE_OUTER_BOUND('',#156,.T.);
#103=FACE_OUTER_BOUND('',#160,.T.);
#104=FACE_OUTER_BOUND('',#161,.T.);
#105=FACE_OUTER_BOUND('',#162,.T.);
#106=FACE_OUTER_BOUND('',#163,.T.);
#107=EDGE_LOOP('',(#629,#630,#631,#632));
#108=EDGE_LOOP('',(#633));
#109=EDGE_LOOP('',(#634,#635,#636,#637));
#110=EDGE_LOOP('',(#638));
#111=EDGE_LOOP('',(#639,#640,#641,#642));
#112=EDGE_LOOP('',(#643));
#113=EDGE_LOOP('',(#644,#645,#646,#647,#648,#649,#650,#651));
#114=EDGE_LOOP('',(#652,#653,#654,#655));
#115=EDGE_LOOP('',(#656,#657,#658,#659));
#116=EDGE_LOOP('',(#660,#661,#662,#663));
#117=EDGE_LOOP('',(#664,#665,#666,#667));
#118=EDGE_LOOP('',(#668,#669,#670,#671));
#119=EDGE_LOOP('',(#672,#673,#674,#675));
#120=EDGE_LOOP('',(#676,#677,#678,#679));
#121=EDGE_LOOP('',(#680,#681,#682,#683));
#122=EDGE_LOOP('',(#684,#685,#686,#687));
#123=EDGE_LOOP('',(#688,#689,#690,#691));
#124=EDGE_LOOP('',(#692,#693,#694,#695));
#125=EDGE_LOOP('',(#696,#697,#698,#699,#700,#701,#702,#703));
#126=EDGE_LOOP('',(#704,#705,#706,#707,#708,#709,#710,#711));
#127=EDGE_LOOP('',(#712,#713,#714,#715,#716,#717));
#128=EDGE_LOOP('',(#718,#719,#720,#721));
#129=EDGE_LOOP('',(#722,#723,#724,#725));
#130=EDGE_LOOP('',(#726,#727,#728,#729));
#131=EDGE_LOOP('',(#730,#731,#732,#733));
#132=EDGE_LOOP('',(#734,#735,#736,#737));
#133=EDGE_LOOP('',(#738,#739,#740,#741));
#134=EDGE_LOOP('',(#742,#743,#744,#745,#746,#747,#748,#749,#750,#751,#752,
#753));
#135=EDGE_LOOP('',(#754,#755,#756,#757));
#136=EDGE_LOOP('',(#758,#759,#760,#761));
#137=EDGE_LOOP('',(#762,#763,#764,#765));
#138=EDGE_LOOP('',(#766,#767,#768,#769));
#139=EDGE_LOOP('',(#770,#771,#772,#773));
#140=EDGE_LOOP('',(#774,#775,#776,#777));
#141=EDGE_LOOP('',(#778,#779,#780,#781,#782,#783,#784,#785,#786,#787,#788,
#789));
#142=EDGE_LOOP('',(#790,#791,#792,#793,#794,#795));
#143=EDGE_LOOP('',(#796,#797,#798,#799,#800,#801,#802,#803));
#144=EDGE_LOOP('',(#804,#805,#806,#807));
#145=EDGE_LOOP('',(#808,#809,#810,#811,#812,#813,#814,#815,#816,#817,#818,
#819));
#146=EDGE_LOOP('',(#820,#821,#822,#823));
#147=EDGE_LOOP('',(#824,#825,#826,#827));
#148=EDGE_LOOP('',(#828,#829,#830,#831));
#149=EDGE_LOOP('',(#832,#833,#834,#835,#836,#837,#838,#839));
#150=EDGE_LOOP('',(#840,#841,#842,#843));
#151=EDGE_LOOP('',(#844,#845,#846,#847));
#152=EDGE_LOOP('',(#848,#849,#850,#851,#852,#853,#854,#855));
#153=EDGE_LOOP('',(#856,#857,#858,#859));
#154=EDGE_LOOP('',(#860,#861,#862,#863));
#155=EDGE_LOOP('',(#864,#865,#866,#867));
#156=EDGE_LOOP('',(#868,#869,#870,#871,#872,#873,#874,#875));
#157=EDGE_LOOP('',(#876));
#158=EDGE_LOOP('',(#877));
#159=EDGE_LOOP('',(#878));
#160=EDGE_LOOP('',(#879,#880,#881,#882));
#161=EDGE_LOOP('',(#883,#884,#885,#886,#887,#888,#889,#890));
#162=EDGE_LOOP('',(#891,#892,#893,#894));
#163=EDGE_LOOP('',(#895,#896,#897,#898,#899,#900,#901,#902,#903,#904,#905,
#906));
#164=LINE('',#1386,#261);
#165=LINE('',#1393,#262);
#166=LINE('',#1400,#263);
#167=LINE('',#1406,#264);
#168=LINE('',#1408,#265);
#169=LINE('',#1410,#266);
#170=LINE('',#1412,#267);
#171=LINE('',#1414,#268);
#172=LINE('',#1416,#269);
#173=LINE('',#1418,#270);
#174=LINE('',#1419,#271);
#175=LINE('',#1425,#272);
#176=LINE('',#1428,#273);
#177=LINE('',#1439,#274);
#178=LINE('',#1440,#275);
#179=LINE('',#1451,#276);
#180=LINE('',#1452,#277);
#181=LINE('',#1463,#278);
#182=LINE('',#1464,#279);
#183=LINE('',#1470,#280);
#184=LINE('',#1473,#281);
#185=LINE('',#1476,#282);
#186=LINE('',#1477,#283);
#187=LINE('',#1480,#284);
#188=LINE('',#1484,#285);
#189=LINE('',#1486,#286);
#190=LINE('',#1488,#287);
#191=LINE('',#1490,#288);
#192=LINE('',#1492,#289);
#193=LINE('',#1493,#290);
#194=LINE('',#1497,#291);
#195=LINE('',#1499,#292);
#196=LINE('',#1501,#293);
#197=LINE('',#1503,#294);
#198=LINE('',#1504,#295);
#199=LINE('',#1507,#296);
#200=LINE('',#1508,#297);
#201=LINE('',#1512,#298);
#202=LINE('',#1514,#299);
#203=LINE('',#1516,#300);
#204=LINE('',#1517,#301);
#205=LINE('',#1520,#302);
#206=LINE('',#1522,#303);
#207=LINE('',#1523,#304);
#208=LINE('',#1527,#305);
#209=LINE('',#1529,#306);
#210=LINE('',#1531,#307);
#211=LINE('',#1532,#308);
#212=LINE('',#1535,#309);
#213=LINE('',#1537,#310);
#214=LINE('',#1538,#311);
#215=LINE('',#1542,#312);
#216=LINE('',#1544,#313);
#217=LINE('',#1546,#314);
#218=LINE('',#1547,#315);
#219=LINE('',#1550,#316);
#220=LINE('',#1554,#317);
#221=LINE('',#1558,#318);
#222=LINE('',#1559,#319);
#223=LINE('',#1563,#320);
#224=LINE('',#1566,#321);
#225=LINE('',#1571,#322);
#226=LINE('',#1575,#323);
#227=LINE('',#1577,#324);
#228=LINE('',#1578,#325);
#229=LINE('',#1582,#326);
#230=LINE('',#1585,#327);
#231=LINE('',#1586,#328);
#232=LINE('',#1594,#329);
#233=LINE('',#1596,#330);
#234=LINE('',#1600,#331);
#235=LINE('',#1604,#332);
#236=LINE('',#1605,#333);
#237=LINE('',#1607,#334);
#238=LINE('',#1609,#335);
#239=LINE('',#1610,#336);
#240=LINE('',#1612,#337);
#241=LINE('',#1613,#338);
#242=LINE('',#1616,#339);
#243=LINE('',#1618,#340);
#244=LINE('',#1622,#341);
#245=LINE('',#1624,#342);
#246=LINE('',#1626,#343);
#247=LINE('',#1628,#344);
#248=LINE('',#1631,#345);
#249=LINE('',#1632,#346);
#250=LINE('',#1636,#347);
#251=LINE('',#1641,#348);
#252=LINE('',#1642,#349);
#253=LINE('',#1645,#350);
#254=LINE('',#1646,#351);
#255=LINE('',#1647,#352);
#256=LINE('',#1651,#353);
#257=LINE('',#1654,#354);
#258=LINE('',#1655,#355);
#259=LINE('',#1659,#356);
#260=LINE('',#1663,#357);
#261=VECTOR('',#1096,5.);
#262=VECTOR('',#1105,5.);
#263=VECTOR('',#1114,5.);
#264=VECTOR('',#1121,10.);
#265=VECTOR('',#1122,10.);
#266=VECTOR('',#1123,10.);
#267=VECTOR('',#1124,10.);
#268=VECTOR('',#1125,10.);
#269=VECTOR('',#1126,10.);
#270=VECTOR('',#1127,10.);
#271=VECTOR('',#1128,10.);
#272=VECTOR('',#1133,10.);
#273=VECTOR('',#1136,10.);
#274=VECTOR('',#1149,10.);
#275=VECTOR('',#1150,10.);
#276=VECTOR('',#1163,10.);
#277=VECTOR('',#1164,10.);
#278=VECTOR('',#1177,10.);
#279=VECTOR('',#1178,10.);
#280=VECTOR('',#1187,10.);
#281=VECTOR('',#1190,10.);
#282=VECTOR('',#1193,10.);
#283=VECTOR('',#1194,10.);
#284=VECTOR('',#1197,10.);
#285=VECTOR('',#1202,10.);
#286=VECTOR('',#1203,10.);
#287=VECTOR('',#1204,10.);
#288=VECTOR('',#1205,10.);
#289=VECTOR('',#1206,10.);
#290=VECTOR('',#1207,10.);
#291=VECTOR('',#1212,10.);
#292=VECTOR('',#1213,10.);
#293=VECTOR('',#1214,10.);
#294=VECTOR('',#1215,10.);
#295=VECTOR('',#1216,10.);
#296=VECTOR('',#1219,10.);
#297=VECTOR('',#1220,10.);
#298=VECTOR('',#1223,10.);
#299=VECTOR('',#1224,10.);
#300=VECTOR('',#1225,10.);
#301=VECTOR('',#1226,10.);
#302=VECTOR('',#1229,10.);
#303=VECTOR('',#1230,10.);
#304=VECTOR('',#1231,10.);
#305=VECTOR('',#1234,10.);
#306=VECTOR('',#1235,10.);
#307=VECTOR('',#1236,10.);
#308=VECTOR('',#1237,10.);
#309=VECTOR('',#1240,10.);
#310=VECTOR('',#1241,10.);
#311=VECTOR('',#1242,10.);
#312=VECTOR('',#1245,10.);
#313=VECTOR('',#1246,10.);
#314=VECTOR('',#1247,10.);
#315=VECTOR('',#1248,10.);
#316=VECTOR('',#1251,10.);
#317=VECTOR('',#1254,10.);
#318=VECTOR('',#1257,10.);
#319=VECTOR('',#1258,10.);
#320=VECTOR('',#1261,10.);
#321=VECTOR('',#1264,10.);
#322=VECTOR('',#1269,10.);
#323=VECTOR('',#1274,10.);
#324=VECTOR('',#1275,10.);
#325=VECTOR('',#1276,10.);
#326=VECTOR('',#1281,10.);
#327=VECTOR('',#1284,10.);
#328=VECTOR('',#1285,10.);
#329=VECTOR('',#1296,10.);
#330=VECTOR('',#1299,10.);
#331=VECTOR('',#1302,10.);
#332=VECTOR('',#1305,10.);
#333=VECTOR('',#1306,10.);
#334=VECTOR('',#1309,10.);
#335=VECTOR('',#1312,10.);
#336=VECTOR('',#1313,10.);
#337=VECTOR('',#1316,10.);
#338=VECTOR('',#1317,10.);
#339=VECTOR('',#1320,10.);
#340=VECTOR('',#1321,10.);
#341=VECTOR('',#1324,10.);
#342=VECTOR('',#1327,10.);
#343=VECTOR('',#1330,10.);
#344=VECTOR('',#1333,10.);
#345=VECTOR('',#1338,10.);
#346=VECTOR('',#1339,10.);
#347=VECTOR('',#1344,10.);
#348=VECTOR('',#1349,10.);
#349=VECTOR('',#1350,10.);
#350=VECTOR('',#1353,10.);
#351=VECTOR('',#1354,10.);
#352=VECTOR('',#1355,10.);
#353=VECTOR('',#1360,10.);
#354=VECTOR('',#1363,10.);
#355=VECTOR('',#1364,10.);
#356=VECTOR('',#1371,10.);
#357=VECTOR('',#1378,10.);
#358=CIRCLE('',#995,5.07);
#359=CIRCLE('',#996,5.07);
#360=CIRCLE('',#999,5.07);
#361=CIRCLE('',#1000,5.07);
#362=CIRCLE('',#1003,5.07);
#363=CIRCLE('',#1004,5.07);
#364=CIRCLE('',#1008,1.);
#365=CIRCLE('',#1009,0.999999999999999);
#366=CIRCLE('',#1011,1.);
#367=CIRCLE('',#1012,4.99999999999999);
#368=CIRCLE('',#1013,5.99999999999999);
#369=CIRCLE('',#1015,0.999999999999996);
#370=CIRCLE('',#1017,1.);
#371=CIRCLE('',#1018,5.);
#372=CIRCLE('',#1019,6.);
#373=CIRCLE('',#1021,0.999999999999999);
#374=CIRCLE('',#1023,1.);
#375=CIRCLE('',#1024,4.99999999999999);
#376=CIRCLE('',#1025,5.99999999999999);
#377=CIRCLE('',#1027,1.);
#378=CIRCLE('',#1029,6.);
#379=CIRCLE('',#1030,4.99999999999999);
#380=CIRCLE('',#1032,6.);
#381=CIRCLE('',#1035,5.99999999999999);
#382=CIRCLE('',#1046,5.99999999999999);
#383=CIRCLE('',#1047,5.99999999999999);
#384=CIRCLE('',#1048,5.09999999999999);
#385=CIRCLE('',#1049,5.09999999999999);
#386=CIRCLE('',#1051,5.09999999999999);
#387=CIRCLE('',#1052,5.09999999999999);
#388=CIRCLE('',#1055,5.09999999999999);
#389=CIRCLE('',#1058,5.09999999999999);
#390=CIRCLE('',#1060,5.09999999999999);
#391=CIRCLE('',#1061,5.09999999999999);
#392=CIRCLE('',#1063,1.);
#393=CIRCLE('',#1064,1.);
#394=CIRCLE('',#1069,1.);
#395=CIRCLE('',#1070,1.);
#396=CIRCLE('',#1076,1.);
#397=CIRCLE('',#1078,1.);
#398=CIRCLE('',#1081,1.);
#399=CIRCLE('',#1084,1.);
#400=VERTEX_POINT('',#1383);
#401=VERTEX_POINT('',#1385);
#402=VERTEX_POINT('',#1390);
#403=VERTEX_POINT('',#1392);
#404=VERTEX_POINT('',#1397);
#405=VERTEX_POINT('',#1399);
#406=VERTEX_POINT('',#1404);
#407=VERTEX_POINT('',#1405);
#408=VERTEX_POINT('',#1407);
#409=VERTEX_POINT('',#1409);
#410=VERTEX_POINT('',#1411);
#411=VERTEX_POINT('',#1413);
#412=VERTEX_POINT('',#1415);
#413=VERTEX_POINT('',#1417);
#414=VERTEX_POINT('',#1421);
#415=VERTEX_POINT('',#1422);
#416=VERTEX_POINT('',#1424);
#417=VERTEX_POINT('',#1426);
#418=VERTEX_POINT('',#1430);
#419=VERTEX_POINT('',#1431);
#420=VERTEX_POINT('',#1436);
#421=VERTEX_POINT('',#1437);
#422=VERTEX_POINT('',#1442);
#423=VERTEX_POINT('',#1443);
#424=VERTEX_POINT('',#1448);
#425=VERTEX_POINT('',#1449);
#426=VERTEX_POINT('',#1454);
#427=VERTEX_POINT('',#1455);
#428=VERTEX_POINT('',#1460);
#429=VERTEX_POINT('',#1461);
#430=VERTEX_POINT('',#1469);
#431=VERTEX_POINT('',#1471);
#432=VERTEX_POINT('',#1475);
#433=VERTEX_POINT('',#1479);
#434=VERTEX_POINT('',#1483);
#435=VERTEX_POINT('',#1485);
#436=VERTEX_POINT('',#1487);
#437=VERTEX_POINT('',#1489);
#438=VERTEX_POINT('',#1491);
#439=VERTEX_POINT('',#1496);
#440=VERTEX_POINT('',#1498);
#441=VERTEX_POINT('',#1500);
#442=VERTEX_POINT('',#1502);
#443=VERTEX_POINT('',#1506);
#444=VERTEX_POINT('',#1510);
#445=VERTEX_POINT('',#1511);
#446=VERTEX_POINT('',#1513);
#447=VERTEX_POINT('',#1515);
#448=VERTEX_POINT('',#1519);
#449=VERTEX_POINT('',#1521);
#450=VERTEX_POINT('',#1525);
#451=VERTEX_POINT('',#1526);
#452=VERTEX_POINT('',#1528);
#453=VERTEX_POINT('',#1530);
#454=VERTEX_POINT('',#1534);
#455=VERTEX_POINT('',#1536);
#456=VERTEX_POINT('',#1540);
#457=VERTEX_POINT('',#1541);
#458=VERTEX_POINT('',#1543);
#459=VERTEX_POINT('',#1545);
#460=VERTEX_POINT('',#1549);
#461=VERTEX_POINT('',#1551);
#462=VERTEX_POINT('',#1553);
#463=VERTEX_POINT('',#1555);
#464=VERTEX_POINT('',#1557);
#465=VERTEX_POINT('',#1560);
#466=VERTEX_POINT('',#1562);
#467=VERTEX_POINT('',#1564);
#468=VERTEX_POINT('',#1568);
#469=VERTEX_POINT('',#1570);
#470=VERTEX_POINT('',#1574);
#471=VERTEX_POINT('',#1576);
#472=VERTEX_POINT('',#1580);
#473=VERTEX_POINT('',#1584);
#474=VERTEX_POINT('',#1590);
#475=VERTEX_POINT('',#1592);
#476=VERTEX_POINT('',#1597);
#477=VERTEX_POINT('',#1599);
#478=VERTEX_POINT('',#1601);
#479=VERTEX_POINT('',#1603);
#480=VERTEX_POINT('',#1615);
#481=VERTEX_POINT('',#1617);
#482=VERTEX_POINT('',#1619);
#483=VERTEX_POINT('',#1621);
#484=VERTEX_POINT('',#1634);
#485=VERTEX_POINT('',#1638);
#486=VERTEX_POINT('',#1639);
#487=VERTEX_POINT('',#1644);
#488=VERTEX_POINT('',#1649);
#489=VERTEX_POINT('',#1653);
#490=EDGE_CURVE('',#400,#400,#358,.T.);
#491=EDGE_CURVE('',#400,#401,#164,.T.);
#492=EDGE_CURVE('',#401,#401,#359,.T.);
#493=EDGE_CURVE('',#402,#402,#360,.T.);
#494=EDGE_CURVE('',#402,#403,#165,.T.);
#495=EDGE_CURVE('',#403,#403,#361,.T.);
#496=EDGE_CURVE('',#404,#404,#362,.T.);
#497=EDGE_CURVE('',#404,#405,#166,.T.);
#498=EDGE_CURVE('',#405,#405,#363,.T.);
#499=EDGE_CURVE('',#406,#407,#167,.T.);
#500=EDGE_CURVE('',#408,#407,#168,.T.);
#501=EDGE_CURVE('',#409,#408,#169,.T.);
#502=EDGE_CURVE('',#410,#409,#170,.T.);
#503=EDGE_CURVE('',#411,#410,#171,.F.);
#504=EDGE_CURVE('',#412,#411,#172,.T.);
#505=EDGE_CURVE('',#413,#412,#173,.T.);
#506=EDGE_CURVE('',#413,#406,#174,.T.);
#507=EDGE_CURVE('',#414,#415,#364,.T.);
#508=EDGE_CURVE('',#415,#416,#175,.T.);
#509=EDGE_CURVE('',#416,#417,#365,.T.);
#510=EDGE_CURVE('',#417,#414,#176,.T.);
#511=EDGE_CURVE('',#418,#419,#366,.T.);
#512=EDGE_CURVE('',#419,#417,#367,.T.);
#513=EDGE_CURVE('',#416,#418,#368,.T.);
#514=EDGE_CURVE('',#420,#421,#369,.T.);
#515=EDGE_CURVE('',#421,#419,#177,.T.);
#516=EDGE_CURVE('',#418,#420,#178,.T.);
#517=EDGE_CURVE('',#422,#423,#370,.T.);
#518=EDGE_CURVE('',#423,#421,#371,.T.);
#519=EDGE_CURVE('',#420,#422,#372,.T.);
#520=EDGE_CURVE('',#424,#425,#373,.T.);
#521=EDGE_CURVE('',#425,#423,#179,.T.);
#522=EDGE_CURVE('',#422,#424,#180,.T.);
#523=EDGE_CURVE('',#426,#427,#374,.T.);
#524=EDGE_CURVE('',#427,#425,#375,.T.);
#525=EDGE_CURVE('',#424,#426,#376,.T.);
#526=EDGE_CURVE('',#428,#429,#377,.T.);
#527=EDGE_CURVE('',#429,#427,#181,.T.);
#528=EDGE_CURVE('',#426,#428,#182,.T.);
#529=EDGE_CURVE('',#428,#415,#378,.T.);
#530=EDGE_CURVE('',#414,#429,#379,.T.);
#531=EDGE_CURVE('',#420,#430,#183,.T.);
#532=EDGE_CURVE('',#431,#430,#380,.T.);
#533=EDGE_CURVE('',#422,#431,#184,.T.);
#534=EDGE_CURVE('',#418,#432,#185,.T.);
#535=EDGE_CURVE('',#430,#432,#186,.T.);
#536=EDGE_CURVE('',#416,#433,#187,.T.);
#537=EDGE_CURVE('',#432,#433,#381,.T.);
#538=EDGE_CURVE('',#415,#434,#188,.T.);
#539=EDGE_CURVE('',#435,#434,#189,.T.);
#540=EDGE_CURVE('',#436,#435,#190,.T.);
#541=EDGE_CURVE('',#437,#436,#191,.F.);
#542=EDGE_CURVE('',#437,#438,#192,.T.);
#543=EDGE_CURVE('',#433,#438,#193,.T.);
#544=EDGE_CURVE('',#411,#439,#194,.T.);
#545=EDGE_CURVE('',#440,#439,#195,.T.);
#546=EDGE_CURVE('',#440,#441,#196,.T.);
#547=EDGE_CURVE('',#441,#442,#197,.T.);
#548=EDGE_CURVE('',#412,#442,#198,.T.);
#549=EDGE_CURVE('',#443,#410,#199,.T.);
#550=EDGE_CURVE('',#439,#443,#200,.T.);
#551=EDGE_CURVE('',#444,#445,#201,.T.);
#552=EDGE_CURVE('',#444,#446,#202,.T.);
#553=EDGE_CURVE('',#447,#446,#203,.T.);
#554=EDGE_CURVE('',#445,#447,#204,.T.);
#555=EDGE_CURVE('',#448,#447,#205,.T.);
#556=EDGE_CURVE('',#449,#448,#206,.T.);
#557=EDGE_CURVE('',#445,#449,#207,.T.);
#558=EDGE_CURVE('',#450,#451,#208,.T.);
#559=EDGE_CURVE('',#452,#450,#209,.T.);
#560=EDGE_CURVE('',#452,#453,#210,.T.);
#561=EDGE_CURVE('',#451,#453,#211,.F.);
#562=EDGE_CURVE('',#454,#441,#212,.F.);
#563=EDGE_CURVE('',#455,#454,#213,.T.);
#564=EDGE_CURVE('',#442,#455,#214,.T.);
#565=EDGE_CURVE('',#456,#457,#215,.T.);
#566=EDGE_CURVE('',#458,#456,#216,.F.);
#567=EDGE_CURVE('',#458,#459,#217,.T.);
#568=EDGE_CURVE('',#457,#459,#218,.F.);
#569=EDGE_CURVE('',#435,#460,#219,.T.);
#570=EDGE_CURVE('',#434,#461,#382,.T.);
#571=EDGE_CURVE('',#461,#462,#220,.T.);
#572=EDGE_CURVE('',#462,#463,#383,.T.);
#573=EDGE_CURVE('',#463,#464,#221,.T.);
#574=EDGE_CURVE('',#457,#464,#222,.T.);
#575=EDGE_CURVE('',#459,#465,#384,.F.);
#576=EDGE_CURVE('',#465,#466,#223,.F.);
#577=EDGE_CURVE('',#466,#467,#385,.F.);
#578=EDGE_CURVE('',#467,#460,#224,.F.);
#579=EDGE_CURVE('',#468,#452,#386,.T.);
#580=EDGE_CURVE('',#469,#468,#225,.T.);
#581=EDGE_CURVE('',#453,#469,#387,.F.);
#582=EDGE_CURVE('',#460,#470,#226,.T.);
#583=EDGE_CURVE('',#471,#467,#227,.T.);
#584=EDGE_CURVE('',#470,#471,#228,.F.);
#585=EDGE_CURVE('',#471,#472,#388,.F.);
#586=EDGE_CURVE('',#472,#466,#229,.T.);
#587=EDGE_CURVE('',#472,#473,#230,.F.);
#588=EDGE_CURVE('',#473,#465,#231,.T.);
#589=EDGE_CURVE('',#473,#458,#389,.F.);
#590=EDGE_CURVE('',#455,#474,#390,.T.);
#591=EDGE_CURVE('',#475,#454,#391,.F.);
#592=EDGE_CURVE('',#475,#474,#232,.T.);
#593=EDGE_CURVE('',#456,#409,#233,.F.);
#594=EDGE_CURVE('',#408,#476,#392,.T.);
#595=EDGE_CURVE('',#476,#477,#234,.T.);
#596=EDGE_CURVE('',#477,#478,#393,.T.);
#597=EDGE_CURVE('',#478,#479,#235,.T.);
#598=EDGE_CURVE('',#479,#470,#236,.F.);
#599=EDGE_CURVE('',#464,#443,#237,.T.);
#600=EDGE_CURVE('',#440,#431,#238,.T.);
#601=EDGE_CURVE('',#424,#463,#239,.T.);
#602=EDGE_CURVE('',#444,#437,#240,.F.);
#603=EDGE_CURVE('',#446,#436,#241,.T.);
#604=EDGE_CURVE('',#450,#480,#242,.T.);
#605=EDGE_CURVE('',#480,#481,#243,.T.);
#606=EDGE_CURVE('',#481,#482,#394,.T.);
#607=EDGE_CURVE('',#482,#483,#244,.T.);
#608=EDGE_CURVE('',#483,#413,#395,.T.);
#609=EDGE_CURVE('',#468,#474,#245,.T.);
#610=EDGE_CURVE('',#426,#462,#246,.T.);
#611=EDGE_CURVE('',#428,#461,#247,.T.);
#612=EDGE_CURVE('',#480,#449,#248,.T.);
#613=EDGE_CURVE('',#451,#438,#249,.T.);
#614=EDGE_CURVE('',#484,#406,#396,.T.);
#615=EDGE_CURVE('',#483,#484,#250,.T.);
#616=EDGE_CURVE('',#485,#486,#397,.T.);
#617=EDGE_CURVE('',#486,#482,#251,.T.);
#618=EDGE_CURVE('',#481,#485,#252,.T.);
#619=EDGE_CURVE('',#487,#485,#253,.T.);
#620=EDGE_CURVE('',#448,#479,#254,.F.);
#621=EDGE_CURVE('',#478,#487,#255,.T.);
#622=EDGE_CURVE('',#488,#487,#398,.T.);
#623=EDGE_CURVE('',#477,#488,#256,.T.);
#624=EDGE_CURVE('',#489,#488,#257,.T.);
#625=EDGE_CURVE('',#476,#489,#258,.T.);
#626=EDGE_CURVE('',#407,#489,#399,.T.);
#627=EDGE_CURVE('',#486,#484,#259,.T.);
#628=EDGE_CURVE('',#475,#469,#260,.T.);
#629=ORIENTED_EDGE('',*,*,#490,.F.);
#630=ORIENTED_EDGE('',*,*,#491,.T.);
#631=ORIENTED_EDGE('',*,*,#492,.T.);
#632=ORIENTED_EDGE('',*,*,#491,.F.);
#633=ORIENTED_EDGE('',*,*,#492,.F.);
#634=ORIENTED_EDGE('',*,*,#493,.F.);
#635=ORIENTED_EDGE('',*,*,#494,.T.);
#636=ORIENTED_EDGE('',*,*,#495,.T.);
#637=ORIENTED_EDGE('',*,*,#494,.F.);
#638=ORIENTED_EDGE('',*,*,#495,.F.);
#639=ORIENTED_EDGE('',*,*,#496,.F.);
#640=ORIENTED_EDGE('',*,*,#497,.T.);
#641=ORIENTED_EDGE('',*,*,#498,.T.);
#642=ORIENTED_EDGE('',*,*,#497,.F.);
#643=ORIENTED_EDGE('',*,*,#498,.F.);
#644=ORIENTED_EDGE('',*,*,#499,.T.);
#645=ORIENTED_EDGE('',*,*,#500,.F.);
#646=ORIENTED_EDGE('',*,*,#501,.F.);
#647=ORIENTED_EDGE('',*,*,#502,.F.);
#648=ORIENTED_EDGE('',*,*,#503,.F.);
#649=ORIENTED_EDGE('',*,*,#504,.F.);
#650=ORIENTED_EDGE('',*,*,#505,.F.);
#651=ORIENTED_EDGE('',*,*,#506,.T.);
#652=ORIENTED_EDGE('',*,*,#507,.T.);
#653=ORIENTED_EDGE('',*,*,#508,.T.);
#654=ORIENTED_EDGE('',*,*,#509,.T.);
#655=ORIENTED_EDGE('',*,*,#510,.T.);
#656=ORIENTED_EDGE('',*,*,#511,.T.);
#657=ORIENTED_EDGE('',*,*,#512,.T.);
#658=ORIENTED_EDGE('',*,*,#509,.F.);
#659=ORIENTED_EDGE('',*,*,#513,.T.);
#660=ORIENTED_EDGE('',*,*,#514,.T.);
#661=ORIENTED_EDGE('',*,*,#515,.T.);
#662=ORIENTED_EDGE('',*,*,#511,.F.);
#663=ORIENTED_EDGE('',*,*,#516,.T.);
#664=ORIENTED_EDGE('',*,*,#517,.T.);
#665=ORIENTED_EDGE('',*,*,#518,.T.);
#666=ORIENTED_EDGE('',*,*,#514,.F.);
#667=ORIENTED_EDGE('',*,*,#519,.T.);
#668=ORIENTED_EDGE('',*,*,#520,.T.);
#669=ORIENTED_EDGE('',*,*,#521,.T.);
#670=ORIENTED_EDGE('',*,*,#517,.F.);
#671=ORIENTED_EDGE('',*,*,#522,.T.);
#672=ORIENTED_EDGE('',*,*,#523,.T.);
#673=ORIENTED_EDGE('',*,*,#524,.T.);
#674=ORIENTED_EDGE('',*,*,#520,.F.);
#675=ORIENTED_EDGE('',*,*,#525,.T.);
#676=ORIENTED_EDGE('',*,*,#526,.T.);
#677=ORIENTED_EDGE('',*,*,#527,.T.);
#678=ORIENTED_EDGE('',*,*,#523,.F.);
#679=ORIENTED_EDGE('',*,*,#528,.T.);
#680=ORIENTED_EDGE('',*,*,#526,.F.);
#681=ORIENTED_EDGE('',*,*,#529,.T.);
#682=ORIENTED_EDGE('',*,*,#507,.F.);
#683=ORIENTED_EDGE('',*,*,#530,.T.);
#684=ORIENTED_EDGE('',*,*,#519,.F.);
#685=ORIENTED_EDGE('',*,*,#531,.T.);
#686=ORIENTED_EDGE('',*,*,#532,.F.);
#687=ORIENTED_EDGE('',*,*,#533,.F.);
#688=ORIENTED_EDGE('',*,*,#516,.F.);
#689=ORIENTED_EDGE('',*,*,#534,.T.);
#690=ORIENTED_EDGE('',*,*,#535,.F.);
#691=ORIENTED_EDGE('',*,*,#531,.F.);
#692=ORIENTED_EDGE('',*,*,#513,.F.);
#693=ORIENTED_EDGE('',*,*,#536,.T.);
#694=ORIENTED_EDGE('',*,*,#537,.F.);
#695=ORIENTED_EDGE('',*,*,#534,.F.);
#696=ORIENTED_EDGE('',*,*,#508,.F.);
#697=ORIENTED_EDGE('',*,*,#538,.T.);
#698=ORIENTED_EDGE('',*,*,#539,.F.);
#699=ORIENTED_EDGE('',*,*,#540,.F.);
#700=ORIENTED_EDGE('',*,*,#541,.F.);
#701=ORIENTED_EDGE('',*,*,#542,.T.);
#702=ORIENTED_EDGE('',*,*,#543,.F.);
#703=ORIENTED_EDGE('',*,*,#536,.F.);
#704=ORIENTED_EDGE('',*,*,#510,.F.);
#705=ORIENTED_EDGE('',*,*,#512,.F.);
#706=ORIENTED_EDGE('',*,*,#515,.F.);
#707=ORIENTED_EDGE('',*,*,#518,.F.);
#708=ORIENTED_EDGE('',*,*,#521,.F.);
#709=ORIENTED_EDGE('',*,*,#524,.F.);
#710=ORIENTED_EDGE('',*,*,#527,.F.);
#711=ORIENTED_EDGE('',*,*,#530,.F.);
#712=ORIENTED_EDGE('',*,*,#504,.T.);
#713=ORIENTED_EDGE('',*,*,#544,.T.);
#714=ORIENTED_EDGE('',*,*,#545,.F.);
#715=ORIENTED_EDGE('',*,*,#546,.T.);
#716=ORIENTED_EDGE('',*,*,#547,.T.);
#717=ORIENTED_EDGE('',*,*,#548,.F.);
#718=ORIENTED_EDGE('',*,*,#503,.T.);
#719=ORIENTED_EDGE('',*,*,#549,.F.);
#720=ORIENTED_EDGE('',*,*,#550,.F.);
#721=ORIENTED_EDGE('',*,*,#544,.F.);
#722=ORIENTED_EDGE('',*,*,#551,.F.);
#723=ORIENTED_EDGE('',*,*,#552,.T.);
#724=ORIENTED_EDGE('',*,*,#553,.F.);
#725=ORIENTED_EDGE('',*,*,#554,.F.);
#726=ORIENTED_EDGE('',*,*,#554,.T.);
#727=ORIENTED_EDGE('',*,*,#555,.F.);
#728=ORIENTED_EDGE('',*,*,#556,.F.);
#729=ORIENTED_EDGE('',*,*,#557,.F.);
#730=ORIENTED_EDGE('',*,*,#558,.F.);
#731=ORIENTED_EDGE('',*,*,#559,.F.);
#732=ORIENTED_EDGE('',*,*,#560,.T.);
#733=ORIENTED_EDGE('',*,*,#561,.F.);
#734=ORIENTED_EDGE('',*,*,#547,.F.);
#735=ORIENTED_EDGE('',*,*,#562,.F.);
#736=ORIENTED_EDGE('',*,*,#563,.F.);
#737=ORIENTED_EDGE('',*,*,#564,.F.);
#738=ORIENTED_EDGE('',*,*,#565,.F.);
#739=ORIENTED_EDGE('',*,*,#566,.F.);
#740=ORIENTED_EDGE('',*,*,#567,.T.);
#741=ORIENTED_EDGE('',*,*,#568,.F.);
#742=ORIENTED_EDGE('',*,*,#569,.F.);
#743=ORIENTED_EDGE('',*,*,#539,.T.);
#744=ORIENTED_EDGE('',*,*,#570,.T.);
#745=ORIENTED_EDGE('',*,*,#571,.T.);
#746=ORIENTED_EDGE('',*,*,#572,.T.);
#747=ORIENTED_EDGE('',*,*,#573,.T.);
#748=ORIENTED_EDGE('',*,*,#574,.F.);
#749=ORIENTED_EDGE('',*,*,#568,.T.);
#750=ORIENTED_EDGE('',*,*,#575,.T.);
#751=ORIENTED_EDGE('',*,*,#576,.T.);
#752=ORIENTED_EDGE('',*,*,#577,.T.);
#753=ORIENTED_EDGE('',*,*,#578,.T.);
#754=ORIENTED_EDGE('',*,*,#579,.F.);
#755=ORIENTED_EDGE('',*,*,#580,.F.);
#756=ORIENTED_EDGE('',*,*,#581,.F.);
#757=ORIENTED_EDGE('',*,*,#560,.F.);
#758=ORIENTED_EDGE('',*,*,#582,.F.);
#759=ORIENTED_EDGE('',*,*,#578,.F.);
#760=ORIENTED_EDGE('',*,*,#583,.F.);
#761=ORIENTED_EDGE('',*,*,#584,.F.);
#762=ORIENTED_EDGE('',*,*,#585,.F.);
#763=ORIENTED_EDGE('',*,*,#583,.T.);
#764=ORIENTED_EDGE('',*,*,#577,.F.);
#765=ORIENTED_EDGE('',*,*,#586,.F.);
#766=ORIENTED_EDGE('',*,*,#587,.F.);
#767=ORIENTED_EDGE('',*,*,#586,.T.);
#768=ORIENTED_EDGE('',*,*,#576,.F.);
#769=ORIENTED_EDGE('',*,*,#588,.F.);
#770=ORIENTED_EDGE('',*,*,#589,.F.);
#771=ORIENTED_EDGE('',*,*,#588,.T.);
#772=ORIENTED_EDGE('',*,*,#575,.F.);
#773=ORIENTED_EDGE('',*,*,#567,.F.);
#774=ORIENTED_EDGE('',*,*,#590,.F.);
#775=ORIENTED_EDGE('',*,*,#563,.T.);
#776=ORIENTED_EDGE('',*,*,#591,.F.);
#777=ORIENTED_EDGE('',*,*,#592,.T.);
#778=ORIENTED_EDGE('',*,*,#584,.T.);
#779=ORIENTED_EDGE('',*,*,#585,.T.);
#780=ORIENTED_EDGE('',*,*,#587,.T.);
#781=ORIENTED_EDGE('',*,*,#589,.T.);
#782=ORIENTED_EDGE('',*,*,#566,.T.);
#783=ORIENTED_EDGE('',*,*,#593,.T.);
#784=ORIENTED_EDGE('',*,*,#501,.T.);
#785=ORIENTED_EDGE('',*,*,#594,.T.);
#786=ORIENTED_EDGE('',*,*,#595,.T.);
#787=ORIENTED_EDGE('',*,*,#596,.T.);
#788=ORIENTED_EDGE('',*,*,#597,.T.);
#789=ORIENTED_EDGE('',*,*,#598,.T.);
#790=ORIENTED_EDGE('',*,*,#502,.T.);
#791=ORIENTED_EDGE('',*,*,#593,.F.);
#792=ORIENTED_EDGE('',*,*,#565,.T.);
#793=ORIENTED_EDGE('',*,*,#574,.T.);
#794=ORIENTED_EDGE('',*,*,#599,.T.);
#795=ORIENTED_EDGE('',*,*,#549,.T.);
#796=ORIENTED_EDGE('',*,*,#522,.F.);
#797=ORIENTED_EDGE('',*,*,#533,.T.);
#798=ORIENTED_EDGE('',*,*,#600,.F.);
#799=ORIENTED_EDGE('',*,*,#545,.T.);
#800=ORIENTED_EDGE('',*,*,#550,.T.);
#801=ORIENTED_EDGE('',*,*,#599,.F.);
#802=ORIENTED_EDGE('',*,*,#573,.F.);
#803=ORIENTED_EDGE('',*,*,#601,.F.);
#804=ORIENTED_EDGE('',*,*,#552,.F.);
#805=ORIENTED_EDGE('',*,*,#602,.T.);
#806=ORIENTED_EDGE('',*,*,#541,.T.);
#807=ORIENTED_EDGE('',*,*,#603,.F.);
#808=ORIENTED_EDGE('',*,*,#559,.T.);
#809=ORIENTED_EDGE('',*,*,#604,.T.);
#810=ORIENTED_EDGE('',*,*,#605,.T.);
#811=ORIENTED_EDGE('',*,*,#606,.T.);
#812=ORIENTED_EDGE('',*,*,#607,.T.);
#813=ORIENTED_EDGE('',*,*,#608,.T.);
#814=ORIENTED_EDGE('',*,*,#505,.T.);
#815=ORIENTED_EDGE('',*,*,#548,.T.);
#816=ORIENTED_EDGE('',*,*,#564,.T.);
#817=ORIENTED_EDGE('',*,*,#590,.T.);
#818=ORIENTED_EDGE('',*,*,#609,.F.);
#819=ORIENTED_EDGE('',*,*,#579,.T.);
#820=ORIENTED_EDGE('',*,*,#525,.F.);
#821=ORIENTED_EDGE('',*,*,#601,.T.);
#822=ORIENTED_EDGE('',*,*,#572,.F.);
#823=ORIENTED_EDGE('',*,*,#610,.F.);
#824=ORIENTED_EDGE('',*,*,#528,.F.);
#825=ORIENTED_EDGE('',*,*,#610,.T.);
#826=ORIENTED_EDGE('',*,*,#571,.F.);
#827=ORIENTED_EDGE('',*,*,#611,.F.);
#828=ORIENTED_EDGE('',*,*,#529,.F.);
#829=ORIENTED_EDGE('',*,*,#611,.T.);
#830=ORIENTED_EDGE('',*,*,#570,.F.);
#831=ORIENTED_EDGE('',*,*,#538,.F.);
#832=ORIENTED_EDGE('',*,*,#551,.T.);
#833=ORIENTED_EDGE('',*,*,#557,.T.);
#834=ORIENTED_EDGE('',*,*,#612,.F.);
#835=ORIENTED_EDGE('',*,*,#604,.F.);
#836=ORIENTED_EDGE('',*,*,#558,.T.);
#837=ORIENTED_EDGE('',*,*,#613,.T.);
#838=ORIENTED_EDGE('',*,*,#542,.F.);
#839=ORIENTED_EDGE('',*,*,#602,.F.);
#840=ORIENTED_EDGE('',*,*,#614,.T.);
#841=ORIENTED_EDGE('',*,*,#506,.F.);
#842=ORIENTED_EDGE('',*,*,#608,.F.);
#843=ORIENTED_EDGE('',*,*,#615,.T.);
#844=ORIENTED_EDGE('',*,*,#616,.T.);
#845=ORIENTED_EDGE('',*,*,#617,.T.);
#846=ORIENTED_EDGE('',*,*,#606,.F.);
#847=ORIENTED_EDGE('',*,*,#618,.T.);
#848=ORIENTED_EDGE('',*,*,#619,.T.);
#849=ORIENTED_EDGE('',*,*,#618,.F.);
#850=ORIENTED_EDGE('',*,*,#605,.F.);
#851=ORIENTED_EDGE('',*,*,#612,.T.);
#852=ORIENTED_EDGE('',*,*,#556,.T.);
#853=ORIENTED_EDGE('',*,*,#620,.T.);
#854=ORIENTED_EDGE('',*,*,#597,.F.);
#855=ORIENTED_EDGE('',*,*,#621,.T.);
#856=ORIENTED_EDGE('',*,*,#622,.T.);
#857=ORIENTED_EDGE('',*,*,#621,.F.);
#858=ORIENTED_EDGE('',*,*,#596,.F.);
#859=ORIENTED_EDGE('',*,*,#623,.T.);
#860=ORIENTED_EDGE('',*,*,#624,.T.);
#861=ORIENTED_EDGE('',*,*,#623,.F.);
#862=ORIENTED_EDGE('',*,*,#595,.F.);
#863=ORIENTED_EDGE('',*,*,#625,.T.);
#864=ORIENTED_EDGE('',*,*,#626,.T.);
#865=ORIENTED_EDGE('',*,*,#625,.F.);
#866=ORIENTED_EDGE('',*,*,#594,.F.);
#867=ORIENTED_EDGE('',*,*,#500,.T.);
#868=ORIENTED_EDGE('',*,*,#499,.F.);
#869=ORIENTED_EDGE('',*,*,#614,.F.);
#870=ORIENTED_EDGE('',*,*,#627,.F.);
#871=ORIENTED_EDGE('',*,*,#616,.F.);
#872=ORIENTED_EDGE('',*,*,#619,.F.);
#873=ORIENTED_EDGE('',*,*,#622,.F.);
#874=ORIENTED_EDGE('',*,*,#624,.F.);
#875=ORIENTED_EDGE('',*,*,#626,.F.);
#876=ORIENTED_EDGE('',*,*,#490,.T.);
#877=ORIENTED_EDGE('',*,*,#493,.T.);
#878=ORIENTED_EDGE('',*,*,#496,.T.);
#879=ORIENTED_EDGE('',*,*,#607,.F.);
#880=ORIENTED_EDGE('',*,*,#617,.F.);
#881=ORIENTED_EDGE('',*,*,#627,.T.);
#882=ORIENTED_EDGE('',*,*,#615,.F.);
#883=ORIENTED_EDGE('',*,*,#553,.T.);
#884=ORIENTED_EDGE('',*,*,#603,.T.);
#885=ORIENTED_EDGE('',*,*,#540,.T.);
#886=ORIENTED_EDGE('',*,*,#569,.T.);
#887=ORIENTED_EDGE('',*,*,#582,.T.);
#888=ORIENTED_EDGE('',*,*,#598,.F.);
#889=ORIENTED_EDGE('',*,*,#620,.F.);
#890=ORIENTED_EDGE('',*,*,#555,.T.);
#891=ORIENTED_EDGE('',*,*,#580,.T.);
#892=ORIENTED_EDGE('',*,*,#609,.T.);
#893=ORIENTED_EDGE('',*,*,#592,.F.);
#894=ORIENTED_EDGE('',*,*,#628,.T.);
#895=ORIENTED_EDGE('',*,*,#532,.T.);
#896=ORIENTED_EDGE('',*,*,#535,.T.);
#897=ORIENTED_EDGE('',*,*,#537,.T.);
#898=ORIENTED_EDGE('',*,*,#543,.T.);
#899=ORIENTED_EDGE('',*,*,#613,.F.);
#900=ORIENTED_EDGE('',*,*,#561,.T.);
#901=ORIENTED_EDGE('',*,*,#581,.T.);
#902=ORIENTED_EDGE('',*,*,#628,.F.);
#903=ORIENTED_EDGE('',*,*,#591,.T.);
#904=ORIENTED_EDGE('',*,*,#562,.T.);
#905=ORIENTED_EDGE('',*,*,#546,.F.);
#906=ORIENTED_EDGE('',*,*,#600,.T.);
#907=CYLINDRICAL_SURFACE('',#994,5.07);
#908=CYLINDRICAL_SURFACE('',#998,5.07);
#909=CYLINDRICAL_SURFACE('',#1002,5.07);
#910=CYLINDRICAL_SURFACE('',#1007,1.);
#911=CYLINDRICAL_SURFACE('',#1014,1.);
#912=CYLINDRICAL_SURFACE('',#1020,1.);
#913=CYLINDRICAL_SURFACE('',#1026,1.);
#914=CYLINDRICAL_SURFACE('',#1031,6.);
#915=CYLINDRICAL_SURFACE('',#1034,5.99999999999999);
#916=CYLINDRICAL_SURFACE('',#1050,5.09999999999999);
#917=CYLINDRICAL_SURFACE('',#1054,5.09999999999999);
#918=CYLINDRICAL_SURFACE('',#1057,5.09999999999999);
#919=CYLINDRICAL_SURFACE('',#1059,5.09999999999999);
#920=CYLINDRICAL_SURFACE('',#1071,5.99999999999999);
#921=CYLINDRICAL_SURFACE('',#1073,5.99999999999999);
#922=CYLINDRICAL_SURFACE('',#1075,1.);
#923=CYLINDRICAL_SURFACE('',#1077,1.);
#924=CYLINDRICAL_SURFACE('',#1080,1.);
#925=CYLINDRICAL_SURFACE('',#1083,1.);
#926=ADVANCED_FACE('',(#53),#907,.F.);
#927=ADVANCED_FACE('',(#54),#22,.T.);
#928=ADVANCED_FACE('',(#55),#908,.F.);
#929=ADVANCED_FACE('',(#56),#23,.T.);
#930=ADVANCED_FACE('',(#57),#909,.F.);
#931=ADVANCED_FACE('',(#58),#24,.T.);
#932=ADVANCED_FACE('',(#59),#25,.T.);
#933=ADVANCED_FACE('',(#60),#910,.T.);
#934=ADVANCED_FACE('',(#61),#18,.T.);
#935=ADVANCED_FACE('',(#62),#911,.T.);
#936=ADVANCED_FACE('',(#63),#19,.T.);
#937=ADVANCED_FACE('',(#64),#912,.T.);
#938=ADVANCED_FACE('',(#65),#20,.T.);
#939=ADVANCED_FACE('',(#66),#913,.T.);
#940=ADVANCED_FACE('',(#67),#21,.T.);
#941=ADVANCED_FACE('',(#68),#914,.T.);
#942=ADVANCED_FACE('',(#69),#26,.T.);
#943=ADVANCED_FACE('',(#70),#915,.T.);
#944=ADVANCED_FACE('',(#71),#27,.T.);
#945=ADVANCED_FACE('',(#72),#28,.F.);
#946=ADVANCED_FACE('',(#73),#29,.T.);
#947=ADVANCED_FACE('',(#74),#30,.F.);
#948=ADVANCED_FACE('',(#75),#31,.T.);
#949=ADVANCED_FACE('',(#76),#32,.T.);
#950=ADVANCED_FACE('',(#77),#33,.T.);
#951=ADVANCED_FACE('',(#78),#34,.T.);
#952=ADVANCED_FACE('',(#79),#35,.T.);
#953=ADVANCED_FACE('',(#80),#36,.T.);
#954=ADVANCED_FACE('',(#81),#916,.F.);
#955=ADVANCED_FACE('',(#82),#37,.T.);
#956=ADVANCED_FACE('',(#83),#917,.F.);
#957=ADVANCED_FACE('',(#84),#38,.T.);
#958=ADVANCED_FACE('',(#85),#918,.F.);
#959=ADVANCED_FACE('',(#86),#919,.F.);
#960=ADVANCED_FACE('',(#87),#39,.T.);
#961=ADVANCED_FACE('',(#88),#40,.T.);
#962=ADVANCED_FACE('',(#89),#41,.T.);
#963=ADVANCED_FACE('',(#90),#42,.F.);
#964=ADVANCED_FACE('',(#91),#43,.T.);
#965=ADVANCED_FACE('',(#92),#920,.T.);
#966=ADVANCED_FACE('',(#93),#44,.T.);
#967=ADVANCED_FACE('',(#94),#921,.T.);
#968=ADVANCED_FACE('',(#95),#45,.T.);
#969=ADVANCED_FACE('',(#96),#922,.F.);
#970=ADVANCED_FACE('',(#97),#923,.F.);
#971=ADVANCED_FACE('',(#98),#46,.T.);
#972=ADVANCED_FACE('',(#99),#924,.F.);
#973=ADVANCED_FACE('',(#100),#47,.T.);
#974=ADVANCED_FACE('',(#101),#925,.F.);
#975=ADVANCED_FACE('',(#102,#15,#16,#17),#48,.T.);
#976=ADVANCED_FACE('',(#103),#49,.T.);
#977=ADVANCED_FACE('',(#104),#50,.T.);
#978=ADVANCED_FACE('',(#105),#51,.T.);
#979=ADVANCED_FACE('',(#106),#52,.T.);
#980=CLOSED_SHELL('',(#926,#927,#928,#929,#930,#931,#932,#933,#934,#935,
#936,#937,#938,#939,#940,#941,#942,#943,#944,#945,#946,#947,#948,#949,#950,
#951,#952,#953,#954,#955,#956,#957,#958,#959,#960,#961,#962,#963,#964,#965,
#966,#967,#968,#969,#970,#971,#972,#973,#974,#975,#976,#977,#978,#979));
#981=DERIVED_UNIT_ELEMENT(#983,1.);
#982=DERIVED_UNIT_ELEMENT(#1670,-3.);
#983=(
MASS_UNIT()
NAMED_UNIT(*)
SI_UNIT(.KILO.,.GRAM.)
);
#984=DERIVED_UNIT((#981,#982));
#985=MEASURE_REPRESENTATION_ITEM('density measure',
POSITIVE_RATIO_MEASURE(7850.),#984);
#986=PROPERTY_DEFINITION_REPRESENTATION(#991,#988);
#987=PROPERTY_DEFINITION_REPRESENTATION(#992,#989);
#988=REPRESENTATION('material name',(#990),#1667);
#989=REPRESENTATION('density',(#985),#1667);
#990=DESCRIPTIVE_REPRESENTATION_ITEM('Steel','Steel');
#991=PROPERTY_DEFINITION('material property','material name',#1677);
#992=PROPERTY_DEFINITION('material property','density of part',#1677);
#993=AXIS2_PLACEMENT_3D('',#1381,#1090,#1091);
#994=AXIS2_PLACEMENT_3D('',#1382,#1092,#1093);
#995=AXIS2_PLACEMENT_3D('',#1384,#1094,#1095);
#996=AXIS2_PLACEMENT_3D('',#1387,#1097,#1098);
#997=AXIS2_PLACEMENT_3D('',#1388,#1099,#1100);
#998=AXIS2_PLACEMENT_3D('',#1389,#1101,#1102);
#999=AXIS2_PLACEMENT_3D('',#1391,#1103,#1104);
#1000=AXIS2_PLACEMENT_3D('',#1394,#1106,#1107);
#1001=AXIS2_PLACEMENT_3D('',#1395,#1108,#1109);
#1002=AXIS2_PLACEMENT_3D('',#1396,#1110,#1111);
#1003=AXIS2_PLACEMENT_3D('',#1398,#1112,#1113);
#1004=AXIS2_PLACEMENT_3D('',#1401,#1115,#1116);
#1005=AXIS2_PLACEMENT_3D('',#1402,#1117,#1118);
#1006=AXIS2_PLACEMENT_3D('',#1403,#1119,#1120);
#1007=AXIS2_PLACEMENT_3D('',#1420,#1129,#1130);
#1008=AXIS2_PLACEMENT_3D('',#1423,#1131,#1132);
#1009=AXIS2_PLACEMENT_3D('',#1427,#1134,#1135);
#1010=AXIS2_PLACEMENT_3D('',#1429,#1137,#1138);
#1011=AXIS2_PLACEMENT_3D('',#1432,#1139,#1140);
#1012=AXIS2_PLACEMENT_3D('',#1433,#1141,#1142);
#1013=AXIS2_PLACEMENT_3D('',#1434,#1143,#1144);
#1014=AXIS2_PLACEMENT_3D('',#1435,#1145,#1146);
#1015=AXIS2_PLACEMENT_3D('',#1438,#1147,#1148);
#1016=AXIS2_PLACEMENT_3D('',#1441,#1151,#1152);
#1017=AXIS2_PLACEMENT_3D('',#1444,#1153,#1154);
#1018=AXIS2_PLACEMENT_3D('',#1445,#1155,#1156);
#1019=AXIS2_PLACEMENT_3D('',#1446,#1157,#1158);
#1020=AXIS2_PLACEMENT_3D('',#1447,#1159,#1160);
#1021=AXIS2_PLACEMENT_3D('',#1450,#1161,#1162);
#1022=AXIS2_PLACEMENT_3D('',#1453,#1165,#1166);
#1023=AXIS2_PLACEMENT_3D('',#1456,#1167,#1168);
#1024=AXIS2_PLACEMENT_3D('',#1457,#1169,#1170);
#1025=AXIS2_PLACEMENT_3D('',#1458,#1171,#1172);
#1026=AXIS2_PLACEMENT_3D('',#1459,#1173,#1174);
#1027=AXIS2_PLACEMENT_3D('',#1462,#1175,#1176);
#1028=AXIS2_PLACEMENT_3D('',#1465,#1179,#1180);
#1029=AXIS2_PLACEMENT_3D('',#1466,#1181,#1182);
#1030=AXIS2_PLACEMENT_3D('',#1467,#1183,#1184);
#1031=AXIS2_PLACEMENT_3D('',#1468,#1185,#1186);
#1032=AXIS2_PLACEMENT_3D('',#1472,#1188,#1189);
#1033=AXIS2_PLACEMENT_3D('',#1474,#1191,#1192);
#1034=AXIS2_PLACEMENT_3D('',#1478,#1195,#1196);
#1035=AXIS2_PLACEMENT_3D('',#1481,#1198,#1199);
#1036=AXIS2_PLACEMENT_3D('',#1482,#1200,#1201);
#1037=AXIS2_PLACEMENT_3D('',#1494,#1208,#1209);
#1038=AXIS2_PLACEMENT_3D('',#1495,#1210,#1211);
#1039=AXIS2_PLACEMENT_3D('',#1505,#1217,#1218);
#1040=AXIS2_PLACEMENT_3D('',#1509,#1221,#1222);
#1041=AXIS2_PLACEMENT_3D('',#1518,#1227,#1228);
#1042=AXIS2_PLACEMENT_3D('',#1524,#1232,#1233);
#1043=AXIS2_PLACEMENT_3D('',#1533,#1238,#1239);
#1044=AXIS2_PLACEMENT_3D('',#1539,#1243,#1244);
#1045=AXIS2_PLACEMENT_3D('',#1548,#1249,#1250);
#1046=AXIS2_PLACEMENT_3D('',#1552,#1252,#1253);
#1047=AXIS2_PLACEMENT_3D('',#1556,#1255,#1256);
#1048=AXIS2_PLACEMENT_3D('',#1561,#1259,#1260);
#1049=AXIS2_PLACEMENT_3D('',#1565,#1262,#1263);
#1050=AXIS2_PLACEMENT_3D('',#1567,#1265,#1266);
#1051=AXIS2_PLACEMENT_3D('',#1569,#1267,#1268);
#1052=AXIS2_PLACEMENT_3D('',#1572,#1270,#1271);
#1053=AXIS2_PLACEMENT_3D('',#1573,#1272,#1273);
#1054=AXIS2_PLACEMENT_3D('',#1579,#1277,#1278);
#1055=AXIS2_PLACEMENT_3D('',#1581,#1279,#1280);
#1056=AXIS2_PLACEMENT_3D('',#1583,#1282,#1283);
#1057=AXIS2_PLACEMENT_3D('',#1587,#1286,#1287);
#1058=AXIS2_PLACEMENT_3D('',#1588,#1288,#1289);
#1059=AXIS2_PLACEMENT_3D('',#1589,#1290,#1291);
#1060=AXIS2_PLACEMENT_3D('',#1591,#1292,#1293);
#1061=AXIS2_PLACEMENT_3D('',#1593,#1294,#1295);
#1062=AXIS2_PLACEMENT_3D('',#1595,#1297,#1298);
#1063=AXIS2_PLACEMENT_3D('',#1598,#1300,#1301);
#1064=AXIS2_PLACEMENT_3D('',#1602,#1303,#1304);
#1065=AXIS2_PLACEMENT_3D('',#1606,#1307,#1308);
#1066=AXIS2_PLACEMENT_3D('',#1608,#1310,#1311);
#1067=AXIS2_PLACEMENT_3D('',#1611,#1314,#1315);
#1068=AXIS2_PLACEMENT_3D('',#1614,#1318,#1319);
#1069=AXIS2_PLACEMENT_3D('',#1620,#1322,#1323);
#1070=AXIS2_PLACEMENT_3D('',#1623,#1325,#1326);
#1071=AXIS2_PLACEMENT_3D('',#1625,#1328,#1329);
#1072=AXIS2_PLACEMENT_3D('',#1627,#1331,#1332);
#1073=AXIS2_PLACEMENT_3D('',#1629,#1334,#1335);
#1074=AXIS2_PLACEMENT_3D('',#1630,#1336,#1337);
#1075=AXIS2_PLACEMENT_3D('',#1633,#1340,#1341);
#1076=AXIS2_PLACEMENT_3D('',#1635,#1342,#1343);
#1077=AXIS2_PLACEMENT_3D('',#1637,#1345,#1346);
#1078=AXIS2_PLACEMENT_3D('',#1640,#1347,#1348);
#1079=AXIS2_PLACEMENT_3D('',#1643,#1351,#1352);
#1080=AXIS2_PLACEMENT_3D('',#1648,#1356,#1357);
#1081=AXIS2_PLACEMENT_3D('',#1650,#1358,#1359);
#1082=AXIS2_PLACEMENT_3D('',#1652,#1361,#1362);
#1083=AXIS2_PLACEMENT_3D('',#1656,#1365,#1366);
#1084=AXIS2_PLACEMENT_3D('',#1657,#1367,#1368);
#1085=AXIS2_PLACEMENT_3D('',#1658,#1369,#1370);
#1086=AXIS2_PLACEMENT_3D('',#1660,#1372,#1373);
#1087=AXIS2_PLACEMENT_3D('',#1661,#1374,#1375);
#1088=AXIS2_PLACEMENT_3D('',#1662,#1376,#1377);
#1089=AXIS2_PLACEMENT_3D('',#1664,#1379,#1380);
#1090=DIRECTION('axis',(0.,0.,1.));
#1091=DIRECTION('refdir',(1.,0.,0.));
#1092=DIRECTION('center_axis',(0.,-1.,0.));
#1093=DIRECTION('ref_axis',(-1.,0.,0.));
#1094=DIRECTION('center_axis',(0.,-1.,0.));
#1095=DIRECTION('ref_axis',(-1.,0.,0.));
#1096=DIRECTION('',(0.,-1.,0.));
#1097=DIRECTION('center_axis',(0.,-1.,0.));
#1098=DIRECTION('ref_axis',(-1.,0.,0.));
#1099=DIRECTION('center_axis',(0.,1.,0.));
#1100=DIRECTION('ref_axis',(-1.,0.,0.));
#1101=DIRECTION('center_axis',(0.,-1.,0.));
#1102=DIRECTION('ref_axis',(-1.,0.,0.));
#1103=DIRECTION('center_axis',(0.,-1.,0.));
#1104=DIRECTION('ref_axis',(-1.,0.,0.));
#1105=DIRECTION('',(0.,-1.,0.));
#1106=DIRECTION('center_axis',(0.,-1.,0.));
#1107=DIRECTION('ref_axis',(-1.,0.,0.));
#1108=DIRECTION('center_axis',(0.,1.,0.));
#1109=DIRECTION('ref_axis',(-1.,0.,0.));
#1110=DIRECTION('center_axis',(0.,-1.,0.));
#1111=DIRECTION('ref_axis',(-1.,0.,0.));
#1112=DIRECTION('center_axis',(0.,-1.,0.));
#1113=DIRECTION('ref_axis',(-1.,0.,0.));
#1114=DIRECTION('',(0.,-1.,0.));
#1115=DIRECTION('center_axis',(0.,-1.,0.));
#1116=DIRECTION('ref_axis',(-1.,0.,0.));
#1117=DIRECTION('center_axis',(0.,1.,0.));
#1118=DIRECTION('ref_axis',(-1.,0.,0.));
#1119=DIRECTION('center_axis',(0.,0.,-1.));
#1120=DIRECTION('ref_axis',(-1.,0.,0.));
#1121=DIRECTION('',(-1.,0.,0.));
#1122=DIRECTION('',(0.,-1.,0.));
#1123=DIRECTION('',(-1.,0.,0.));
#1124=DIRECTION('',(0.,-1.,0.));
#1125=DIRECTION('',(1.,0.,0.));
#1126=DIRECTION('',(0.,1.,0.));
#1127=DIRECTION('',(-1.,0.,0.));
#1128=DIRECTION('',(0.,-1.,0.));
#1129=DIRECTION('center_axis',(1.,0.,6.53072367426563E-17));
#1130=DIRECTION('ref_axis',(0.,-0.707106781186549,-0.707106781186546));
#1131=DIRECTION('center_axis',(1.,0.,2.22044604925032E-15));
#1132=DIRECTION('ref_axis',(0.,-1.,0.));
#1133=DIRECTION('',(1.,0.,6.53072367426563E-17));
#1134=DIRECTION('center_axis',(-1.,0.,0.));
#1135=DIRECTION('ref_axis',(0.,0.,-1.));
#1136=DIRECTION('',(-1.,0.,-6.53072367426563E-17));
#1137=DIRECTION('center_axis',(0.,1.,0.));
#1138=DIRECTION('ref_axis',(0.,0.,1.));
#1139=DIRECTION('center_axis',(0.,0.,-1.));
#1140=DIRECTION('ref_axis',(1.,0.,0.));
#1141=DIRECTION('center_axis',(0.,1.,0.));
#1142=DIRECTION('ref_axis',(0.707106781186548,0.,-0.707106781186547));
#1143=DIRECTION('center_axis',(0.,-1.,0.));
#1144=DIRECTION('ref_axis',(0.707106781186548,0.,-0.707106781186547));
#1145=DIRECTION('center_axis',(0.,0.,1.));
#1146=DIRECTION('ref_axis',(0.707106781186546,-0.707106781186549,0.));
#1147=DIRECTION('center_axis',(0.,0.,-1.));
#1148=DIRECTION('ref_axis',(1.,0.,0.));
#1149=DIRECTION('',(0.,0.,-1.));
#1150=DIRECTION('',(0.,0.,1.));
#1151=DIRECTION('center_axis',(0.,1.,0.));
#1152=DIRECTION('ref_axis',(0.,0.,1.));
#1153=DIRECTION('center_axis',(1.,0.,2.22044604925031E-15));
#1154=DIRECTION('ref_axis',(-2.22044604925031E-15,-2.77555756156289E-16,
1.));
#1155=DIRECTION('center_axis',(0.,1.,0.));
#1156=DIRECTION('ref_axis',(0.707106781186547,0.,0.707106781186548));
#1157=DIRECTION('center_axis',(0.,-1.,0.));
#1158=DIRECTION('ref_axis',(0.707106781186547,0.,0.707106781186548));
#1159=DIRECTION('center_axis',(-1.,0.,-6.53072367426562E-17));
#1160=DIRECTION('ref_axis',(0.,-0.707106781186549,0.707106781186546));
#1161=DIRECTION('center_axis',(1.,0.,0.));
#1162=DIRECTION('ref_axis',(0.,0.,1.));
#1163=DIRECTION('',(1.,0.,6.53072367426562E-17));
#1164=DIRECTION('',(-1.,0.,-6.53072367426562E-17));
#1165=DIRECTION('center_axis',(0.,1.,0.));
#1166=DIRECTION('ref_axis',(0.,0.,1.));
#1167=DIRECTION('center_axis',(0.,0.,1.));
#1168=DIRECTION('ref_axis',(-1.,0.,0.));
#1169=DIRECTION('center_axis',(0.,1.,0.));
#1170=DIRECTION('ref_axis',(-0.707106781186548,0.,0.707106781186547));
#1171=DIRECTION('center_axis',(0.,-1.,0.));
#1172=DIRECTION('ref_axis',(-0.707106781186548,0.,0.707106781186547));
#1173=DIRECTION('center_axis',(0.,0.,-1.));
#1174=DIRECTION('ref_axis',(-0.707106781186546,-0.707106781186549,0.));
#1175=DIRECTION('center_axis',(0.,0.,1.));
#1176=DIRECTION('ref_axis',(-1.,0.,0.));
#1177=DIRECTION('',(0.,0.,1.));
#1178=DIRECTION('',(0.,0.,-1.));
#1179=DIRECTION('center_axis',(0.,1.,0.));
#1180=DIRECTION('ref_axis',(0.,0.,1.));
#1181=DIRECTION('center_axis',(0.,-1.,0.));
#1182=DIRECTION('ref_axis',(-0.707106781186548,0.,-0.707106781186547));
#1183=DIRECTION('center_axis',(0.,1.,0.));
#1184=DIRECTION('ref_axis',(-0.707106781186548,0.,-0.707106781186547));
#1185=DIRECTION('center_axis',(0.,1.,0.));
#1186=DIRECTION('ref_axis',(-3.70074341541719E-16,0.,1.));
#1187=DIRECTION('',(0.,1.,0.));
#1188=DIRECTION('center_axis',(0.,1.,0.));
#1189=DIRECTION('ref_axis',(-3.70074341541719E-16,0.,1.));
#1190=DIRECTION('',(0.,1.,0.));
#1191=DIRECTION('center_axis',(1.,0.,0.));
#1192=DIRECTION('ref_axis',(0.,0.,-1.));
#1193=DIRECTION('',(0.,1.,0.));
#1194=DIRECTION('',(2.96059473233375E-16,0.,-1.));
#1195=DIRECTION('center_axis',(0.,1.,0.));
#1196=DIRECTION('ref_axis',(1.,0.,7.40148683083438E-16));
#1197=DIRECTION('',(0.,1.,0.));
#1198=DIRECTION('center_axis',(0.,1.,0.));
#1199=DIRECTION('ref_axis',(1.,0.,7.40148683083438E-16));
#1200=DIRECTION('center_axis',(6.53072367426563E-17,0.,-1.));
#1201=DIRECTION('ref_axis',(-1.,0.,-6.53072367426563E-17));
#1202=DIRECTION('',(0.,1.,0.));
#1203=DIRECTION('',(-1.,0.,-6.53072367426563E-17));
#1204=DIRECTION('',(0.,-1.,0.));
#1205=DIRECTION('',(1.,0.,6.53072367426563E-17));
#1206=DIRECTION('',(0.,-1.,0.));
#1207=DIRECTION('',(-1.,0.,-6.53072367426563E-17));
#1208=DIRECTION('center_axis',(0.,1.,0.));
#1209=DIRECTION('ref_axis',(1.,0.,0.));
#1210=DIRECTION('center_axis',(1.,0.,0.));
#1211=DIRECTION('ref_axis',(0.,0.,1.));
#1212=DIRECTION('',(0.,0.,1.));
#1213=DIRECTION('',(0.,1.,0.));
#1214=DIRECTION('',(0.,0.,-1.));
#1215=DIRECTION('',(0.,-1.,0.));
#1216=DIRECTION('',(0.,0.,1.));
#1217=DIRECTION('center_axis',(0.,-1.,0.));
#1218=DIRECTION('ref_axis',(0.,0.,-1.));
#1219=DIRECTION('',(0.,0.,-1.));
#1220=DIRECTION('',(-1.,0.,-6.53072367426562E-17));
#1221=DIRECTION('center_axis',(0.,0.,1.));
#1222=DIRECTION('ref_axis',(-1.,0.,0.));
#1223=DIRECTION('',(0.,-1.,0.));
#1224=DIRECTION('',(-1.,0.,0.));
#1225=DIRECTION('',(0.,1.,0.));
#1226=DIRECTION('',(-1.,0.,0.));
#1227=DIRECTION('center_axis',(0.,-1.,0.));
#1228=DIRECTION('ref_axis',(0.,0.,-1.));
#1229=DIRECTION('',(0.,0.,1.));
#1230=DIRECTION('',(-1.,0.,0.));
#1231=DIRECTION('',(0.,0.,-1.));
#1232=DIRECTION('center_axis',(0.,0.,1.));
#1233=DIRECTION('ref_axis',(1.,0.,0.));
#1234=DIRECTION('',(0.,1.,0.));
#1235=DIRECTION('',(-1.,0.,0.));
#1236=DIRECTION('',(0.,1.,0.));
#1237=DIRECTION('',(-1.,0.,0.));
#1238=DIRECTION('center_axis',(0.,0.,-1.));
#1239=DIRECTION('ref_axis',(-1.,0.,0.));
#1240=DIRECTION('',(1.,0.,0.));
#1241=DIRECTION('',(0.,1.,0.));
#1242=DIRECTION('',(1.,0.,0.));
#1243=DIRECTION('center_axis',(0.,0.,-1.));
#1244=DIRECTION('ref_axis',(-1.,0.,0.));
#1245=DIRECTION('',(0.,1.,0.));
#1246=DIRECTION('',(-1.,0.,0.));
#1247=DIRECTION('',(0.,1.,0.));
#1248=DIRECTION('',(1.,0.,0.));
#1249=DIRECTION('center_axis',(0.,1.,0.));
#1250=DIRECTION('ref_axis',(0.,0.,1.));
#1251=DIRECTION('',(0.,0.,1.));
#1252=DIRECTION('center_axis',(0.,1.,0.));
#1253=DIRECTION('ref_axis',(1.11022302462516E-15,0.,-1.));
#1254=DIRECTION('',(0.,0.,1.));
#1255=DIRECTION('center_axis',(0.,1.,0.));
#1256=DIRECTION('ref_axis',(-1.,0.,-7.40148683083438E-16));
#1257=DIRECTION('',(1.,0.,6.53072367426562E-17));
#1258=DIRECTION('',(0.,0.,1.));
#1259=DIRECTION('center_axis',(0.,1.,0.));
#1260=DIRECTION('ref_axis',(-1.,0.,-8.88178419700126E-16));
#1261=DIRECTION('',(0.,0.,1.));
#1262=DIRECTION('center_axis',(0.,1.,0.));
#1263=DIRECTION('ref_axis',(1.33226762955019E-15,0.,-1.));
#1264=DIRECTION('',(-1.,0.,0.));
#1265=DIRECTION('center_axis',(0.,1.,0.));
#1266=DIRECTION('ref_axis',(1.,0.,8.88178419700126E-16));
#1267=DIRECTION('center_axis',(0.,1.,0.));
#1268=DIRECTION('ref_axis',(1.,0.,8.88178419700126E-16));
#1269=DIRECTION('',(0.,-1.,0.));
#1270=DIRECTION('center_axis',(0.,1.,0.));
#1271=DIRECTION('ref_axis',(1.,0.,8.88178419700126E-16));
#1272=DIRECTION('center_axis',(0.,0.,1.));
#1273=DIRECTION('ref_axis',(1.,0.,0.));
#1274=DIRECTION('',(0.,-1.,0.));
#1275=DIRECTION('',(0.,1.,0.));
#1276=DIRECTION('',(1.,0.,0.));
#1277=DIRECTION('center_axis',(0.,1.,0.));
#1278=DIRECTION('ref_axis',(1.33226762955019E-15,0.,-1.));
#1279=DIRECTION('center_axis',(0.,-1.,0.));
#1280=DIRECTION('ref_axis',(1.33226762955019E-15,0.,-1.));
#1281=DIRECTION('',(0.,1.,0.));
#1282=DIRECTION('center_axis',(1.,0.,0.));
#1283=DIRECTION('ref_axis',(0.,0.,-1.));
#1284=DIRECTION('',(0.,0.,-1.));
#1285=DIRECTION('',(0.,1.,0.));
#1286=DIRECTION('center_axis',(0.,1.,0.));
#1287=DIRECTION('ref_axis',(-1.,0.,-8.88178419700126E-16));
#1288=DIRECTION('center_axis',(0.,-1.,0.));
#1289=DIRECTION('ref_axis',(-1.,0.,-8.88178419700126E-16));
#1290=DIRECTION('center_axis',(0.,1.,0.));
#1291=DIRECTION('ref_axis',(-4.44089209850063E-16,0.,1.));
#1292=DIRECTION('center_axis',(0.,1.,0.));
#1293=DIRECTION('ref_axis',(-4.44089209850063E-16,0.,1.));
#1294=DIRECTION('center_axis',(0.,1.,0.));
#1295=DIRECTION('ref_axis',(-4.44089209850063E-16,0.,1.));
#1296=DIRECTION('',(0.,-1.,0.));
#1297=DIRECTION('center_axis',(0.,1.,0.));
#1298=DIRECTION('ref_axis',(0.,0.,1.));
#1299=DIRECTION('',(0.,0.,1.));
#1300=DIRECTION('center_axis',(0.,-1.,0.));
#1301=DIRECTION('ref_axis',(-1.,0.,0.));
#1302=DIRECTION('',(0.,0.,-1.));
#1303=DIRECTION('center_axis',(0.,-1.,0.));
#1304=DIRECTION('ref_axis',(0.,0.,-1.));
#1305=DIRECTION('',(1.,0.,0.));
#1306=DIRECTION('',(0.,0.,1.));
#1307=DIRECTION('center_axis',(-1.,0.,0.));
#1308=DIRECTION('ref_axis',(0.,0.,-1.));
#1309=DIRECTION('',(0.,1.,0.));
#1310=DIRECTION('center_axis',(-6.53072367426562E-17,0.,1.));
#1311=DIRECTION('ref_axis',(1.,0.,6.53072367426562E-17));
#1312=DIRECTION('',(1.,0.,6.53072367426562E-17));
#1313=DIRECTION('',(0.,1.,0.));
#1314=DIRECTION('center_axis',(0.,-1.,0.));
#1315=DIRECTION('ref_axis',(0.,0.,-1.));
#1316=DIRECTION('',(0.,0.,1.));
#1317=DIRECTION('',(0.,0.,-1.));
#1318=DIRECTION('center_axis',(0.,1.,0.));
#1319=DIRECTION('ref_axis',(0.,0.,1.));
#1320=DIRECTION('',(0.,0.,1.));
#1321=DIRECTION('',(1.,0.,0.));
#1322=DIRECTION('center_axis',(0.,-1.,0.));
#1323=DIRECTION('ref_axis',(1.,0.,-1.11022302462516E-15));
#1324=DIRECTION('',(2.3373116307898E-16,0.,1.));
#1325=DIRECTION('center_axis',(0.,-1.,0.));
#1326=DIRECTION('ref_axis',(0.,0.,1.));
#1327=DIRECTION('',(0.,0.,1.));
#1328=DIRECTION('center_axis',(0.,1.,0.));
#1329=DIRECTION('ref_axis',(-1.,0.,-7.40148683083438E-16));
#1330=DIRECTION('',(0.,1.,0.));
#1331=DIRECTION('center_axis',(-1.,0.,0.));
#1332=DIRECTION('ref_axis',(0.,0.,1.));
#1333=DIRECTION('',(0.,1.,0.));
#1334=DIRECTION('center_axis',(0.,1.,0.));
#1335=DIRECTION('ref_axis',(1.11022302462516E-15,0.,-1.));
#1336=DIRECTION('center_axis',(1.,0.,0.));
#1337=DIRECTION('ref_axis',(0.,0.,1.));
#1338=DIRECTION('',(0.,-1.,0.));
#1339=DIRECTION('',(0.,0.,-1.));
#1340=DIRECTION('center_axis',(0.,1.,0.));
#1341=DIRECTION('ref_axis',(0.,0.,1.));
#1342=DIRECTION('center_axis',(0.,-1.,0.));
#1343=DIRECTION('ref_axis',(0.,0.,1.));
#1344=DIRECTION('',(0.,-1.,0.));
#1345=DIRECTION('center_axis',(0.,1.,0.));
#1346=DIRECTION('ref_axis',(1.,0.,-1.11022302462516E-15));
#1347=DIRECTION('center_axis',(0.,-1.,0.));
#1348=DIRECTION('ref_axis',(1.,0.,-1.11022302462516E-15));
#1349=DIRECTION('',(0.,1.,0.));
#1350=DIRECTION('',(0.,-1.,0.));
#1351=DIRECTION('center_axis',(0.,0.,1.));
#1352=DIRECTION('ref_axis',(1.,0.,0.));
#1353=DIRECTION('',(1.,0.,0.));
#1354=DIRECTION('',(0.,1.,0.));
#1355=DIRECTION('',(0.,-1.,0.));
#1356=DIRECTION('center_axis',(0.,1.,0.));
#1357=DIRECTION('ref_axis',(0.,0.,-1.));
#1358=DIRECTION('center_axis',(0.,-1.,0.));
#1359=DIRECTION('ref_axis',(0.,0.,-1.));
#1360=DIRECTION('',(0.,-1.,0.));
#1361=DIRECTION('center_axis',(1.,0.,0.));
#1362=DIRECTION('ref_axis',(0.,0.,-1.));
#1363=DIRECTION('',(0.,0.,-1.));
#1364=DIRECTION('',(0.,-1.,0.));
#1365=DIRECTION('center_axis',(0.,1.,0.));
#1366=DIRECTION('ref_axis',(-1.,0.,0.));
#1367=DIRECTION('center_axis',(0.,-1.,0.));
#1368=DIRECTION('ref_axis',(-1.,0.,0.));
#1369=DIRECTION('center_axis',(0.,1.,0.));
#1370=DIRECTION('ref_axis',(1.,0.,0.));
#1371=DIRECTION('',(2.3373116307898E-16,0.,1.));
#1372=DIRECTION('center_axis',(-1.,0.,2.3373116307898E-16));
#1373=DIRECTION('ref_axis',(2.3373116307898E-16,0.,1.));
#1374=DIRECTION('center_axis',(-1.,0.,0.));
#1375=DIRECTION('ref_axis',(0.,0.,-1.));
#1376=DIRECTION('center_axis',(-1.,0.,0.));
#1377=DIRECTION('ref_axis',(0.,0.,1.));
#1378=DIRECTION('',(0.,0.,-1.));
#1379=DIRECTION('center_axis',(0.,1.,0.));
#1380=DIRECTION('ref_axis',(0.,0.,1.));
#1381=CARTESIAN_POINT('',(0.,0.,0.));
#1382=CARTESIAN_POINT('Origin',(12.5000000745058,2.5,0.));
#1383=CARTESIAN_POINT('',(17.5700000745058,2.5,6.20895927167708E-16));
#1384=CARTESIAN_POINT('Origin',(12.5000000745058,2.5,0.));
#1385=CARTESIAN_POINT('',(17.5700000745058,0.5,6.20895927167708E-16));
#1386=CARTESIAN_POINT('',(17.5700000745058,2.5,6.20895927167708E-16));
#1387=CARTESIAN_POINT('Origin',(12.5000000745058,0.5,0.));
#1388=CARTESIAN_POINT('Origin',(12.5000000745058,0.5,0.));
#1389=CARTESIAN_POINT('Origin',(0.,2.5,0.));
#1390=CARTESIAN_POINT('',(5.07,2.5,6.20895927167708E-16));
#1391=CARTESIAN_POINT('Origin',(0.,2.5,0.));
#1392=CARTESIAN_POINT('',(5.07,0.5,6.20895927167708E-16));
#1393=CARTESIAN_POINT('',(5.07,2.5,6.20895927167708E-16));
#1394=CARTESIAN_POINT('Origin',(0.,0.5,0.));
#1395=CARTESIAN_POINT('Origin',(0.,0.5,0.));
#1396=CARTESIAN_POINT('Origin',(-12.5000000745058,2.5,0.));
#1397=CARTESIAN_POINT('',(-7.43000007450581,2.5,6.20895927167708E-16));
#1398=CARTESIAN_POINT('Origin',(-12.5000000745058,2.5,0.));
#1399=CARTESIAN_POINT('',(-7.43000007450581,0.5,6.20895927167708E-16));
#1400=CARTESIAN_POINT('',(-7.43000007450581,2.5,6.20895927167708E-16));
#1401=CARTESIAN_POINT('Origin',(-12.5000000745058,0.5,0.));
#1402=CARTESIAN_POINT('Origin',(-12.5000000745058,0.5,0.));
#1403=CARTESIAN_POINT('Origin',(19.,2.,10.5));
#1404=CARTESIAN_POINT('',(19.,2.5,10.5));
#1405=CARTESIAN_POINT('',(-19.,2.5,10.5));
#1406=CARTESIAN_POINT('',(9.5,2.5,10.5));
#1407=CARTESIAN_POINT('',(-19.,8.4,10.5));
#1408=CARTESIAN_POINT('',(-19.,2.,10.5));
#1409=CARTESIAN_POINT('',(-0.9,8.4,10.5));
#1410=CARTESIAN_POINT('',(9.5,8.4,10.5));
#1411=CARTESIAN_POINT('',(-0.9,15.3,10.5));
#1412=CARTESIAN_POINT('',(-0.9,13.725,10.5));
#1413=CARTESIAN_POINT('',(3.40151550426082,15.3,10.5));
#1414=CARTESIAN_POINT('',(10.0003788760652,15.3,10.5));
#1415=CARTESIAN_POINT('',(3.40151550426082,9.,10.5));
#1416=CARTESIAN_POINT('',(3.40151550426082,13.725,10.5));
#1417=CARTESIAN_POINT('',(19.,9.,10.5));
#1418=CARTESIAN_POINT('',(9.5,9.,10.5));
#1419=CARTESIAN_POINT('',(19.,2.,10.5));
#1420=CARTESIAN_POINT('Origin',(8.5,1.,-12.5));
#1421=CARTESIAN_POINT('',(-17.,0.,-12.5));
#1422=CARTESIAN_POINT('',(-17.,1.,-13.5));
#1423=CARTESIAN_POINT('Origin',(-17.,1.,-12.5));
#1424=CARTESIAN_POINT('',(17.,1.,-13.5));
#1425=CARTESIAN_POINT('',(8.5,1.,-13.5));
#1426=CARTESIAN_POINT('',(17.,0.,-12.5));
#1427=CARTESIAN_POINT('Origin',(17.,1.,-12.5));
#1428=CARTESIAN_POINT('',(8.5,0.,-12.5));
#1429=CARTESIAN_POINT('Origin',(17.,1.,-7.50000000000001));
#1430=CARTESIAN_POINT('',(23.,1.,-7.5));
#1431=CARTESIAN_POINT('',(22.,0.,-7.5));
#1432=CARTESIAN_POINT('Origin',(22.,1.,-7.5));
#1433=CARTESIAN_POINT('Origin',(17.,0.,-7.50000000000001));
#1434=CARTESIAN_POINT('Origin',(17.,1.,-7.50000000000001));
#1435=CARTESIAN_POINT('Origin',(22.,1.,3.75));
#1436=CARTESIAN_POINT('',(23.,1.,7.5));
#1437=CARTESIAN_POINT('',(22.,0.,7.5));
#1438=CARTESIAN_POINT('Origin',(22.,1.,7.5));
#1439=CARTESIAN_POINT('',(22.,0.,3.75));
#1440=CARTESIAN_POINT('',(23.,1.,3.75));
#1441=CARTESIAN_POINT('Origin',(17.,1.,7.50000000000001));
#1442=CARTESIAN_POINT('',(17.,1.,13.5));
#1443=CARTESIAN_POINT('',(17.,0.,12.5));
#1444=CARTESIAN_POINT('Origin',(17.,1.,12.5));
#1445=CARTESIAN_POINT('Origin',(17.,0.,7.50000000000001));
#1446=CARTESIAN_POINT('Origin',(17.,1.,7.50000000000001));
#1447=CARTESIAN_POINT('Origin',(-8.5,1.,12.5));
#1448=CARTESIAN_POINT('',(-17.,1.,13.5));
#1449=CARTESIAN_POINT('',(-17.,0.,12.5));
#1450=CARTESIAN_POINT('Origin',(-17.,1.,12.5));
#1451=CARTESIAN_POINT('',(-8.5,0.,12.5));
#1452=CARTESIAN_POINT('',(-8.5,1.,13.5));
#1453=CARTESIAN_POINT('Origin',(-17.,1.,7.50000000000001));
#1454=CARTESIAN_POINT('',(-23.,1.,7.5));
#1455=CARTESIAN_POINT('',(-22.,0.,7.5));
#1456=CARTESIAN_POINT('Origin',(-22.,1.,7.5));
#1457=CARTESIAN_POINT('Origin',(-17.,0.,7.50000000000001));
#1458=CARTESIAN_POINT('Origin',(-17.,1.,7.50000000000001));
#1459=CARTESIAN_POINT('Origin',(-22.,1.,-3.75));
#1460=CARTESIAN_POINT('',(-23.,1.,-7.5));
#1461=CARTESIAN_POINT('',(-22.,0.,-7.5));
#1462=CARTESIAN_POINT('Origin',(-22.,1.,-7.5));
#1463=CARTESIAN_POINT('',(-22.,0.,-3.75));
#1464=CARTESIAN_POINT('',(-23.,1.,-3.75));
#1465=CARTESIAN_POINT('Origin',(-17.,1.,-7.50000000000001));
#1466=CARTESIAN_POINT('Origin',(-17.,1.,-7.50000000000001));
#1467=CARTESIAN_POINT('Origin',(-17.,0.,-7.50000000000001));
#1468=CARTESIAN_POINT('Origin',(17.,0.,7.50000000000001));
#1469=CARTESIAN_POINT('',(23.,10.,7.5));
#1470=CARTESIAN_POINT('',(23.,0.,7.5));
#1471=CARTESIAN_POINT('',(17.,10.,13.5));
#1472=CARTESIAN_POINT('Origin',(17.,10.,7.50000000000001));
#1473=CARTESIAN_POINT('',(17.,9.,13.5));
#1474=CARTESIAN_POINT('Origin',(23.,0.,7.5));
#1475=CARTESIAN_POINT('',(23.,10.,-7.5));
#1476=CARTESIAN_POINT('',(23.,0.,-7.5));
#1477=CARTESIAN_POINT('',(23.,10.,3.75));
#1478=CARTESIAN_POINT('Origin',(17.,0.,-7.50000000000001));
#1479=CARTESIAN_POINT('',(17.,10.,-13.5));
#1480=CARTESIAN_POINT('',(17.,0.,-13.5));
#1481=CARTESIAN_POINT('Origin',(17.,10.,-7.50000000000001));
#1482=CARTESIAN_POINT('Origin',(17.,0.,-13.5));
#1483=CARTESIAN_POINT('',(-17.,10.,-13.5));
#1484=CARTESIAN_POINT('',(-17.,0.,-13.5));
#1485=CARTESIAN_POINT('',(-0.9,10.,-13.5));
#1486=CARTESIAN_POINT('',(8.5,10.,-13.5));
#1487=CARTESIAN_POINT('',(-0.9,15.3,-13.5));
#1488=CARTESIAN_POINT('',(-0.9,9.,-13.5));
#1489=CARTESIAN_POINT('',(3.40151550426082,15.3,-13.5));
#1490=CARTESIAN_POINT('',(9.00037887606521,15.3,-13.5));
#1491=CARTESIAN_POINT('',(3.40151550426082,10.,-13.5));
#1492=CARTESIAN_POINT('',(3.40151550426082,7.75,-13.5));
#1493=CARTESIAN_POINT('',(8.5,10.,-13.5));
#1494=CARTESIAN_POINT('Origin',(0.,0.,0.));
#1495=CARTESIAN_POINT('Origin',(3.40151550426082,15.5,7.25));
#1496=CARTESIAN_POINT('',(3.40151550426082,15.3,13.5));
#1497=CARTESIAN_POINT('',(3.40151550426082,15.3,8.0625));
#1498=CARTESIAN_POINT('',(3.40151550426082,10.,13.5));
#1499=CARTESIAN_POINT('',(3.40151550426082,7.75,13.5));
#1500=CARTESIAN_POINT('',(3.40151550426082,10.,12.6));
#1501=CARTESIAN_POINT('',(3.40151550426082,10.,3.625));
#1502=CARTESIAN_POINT('',(3.40151550426082,9.,12.6));
#1503=CARTESIAN_POINT('',(3.40151550426082,12.25,12.6));
#1504=CARTESIAN_POINT('',(3.40151550426082,9.,3.625));
#1505=CARTESIAN_POINT('Origin',(1.00075775213041,15.3,8.875));
#1506=CARTESIAN_POINT('',(-0.9,15.3,13.5));
#1507=CARTESIAN_POINT('',(-0.9,15.3,9.6875));
#1508=CARTESIAN_POINT('',(-7.9996211239348,15.3,13.5));
#1509=CARTESIAN_POINT('Origin',(2.00151550426082,15.5,-7.25));
#1510=CARTESIAN_POINT('',(3.40151550426082,15.3,-7.25));
#1511=CARTESIAN_POINT('',(3.40151550426082,8.5,-7.25));
#1512=CARTESIAN_POINT('',(3.40151550426082,9.,-7.25));
#1513=CARTESIAN_POINT('',(-0.9,15.3,-7.25));
#1514=CARTESIAN_POINT('',(1.50113662819561,15.3,-7.25));
#1515=CARTESIAN_POINT('',(-0.9,8.5,-7.25));
#1516=CARTESIAN_POINT('',(-0.9,15.5,-7.25));
#1517=CARTESIAN_POINT('',(1.00075775213041,8.5,-7.25));
#1518=CARTESIAN_POINT('Origin',(0.,8.5,0.));
#1519=CARTESIAN_POINT('',(-0.9,8.5,-10.5));
#1520=CARTESIAN_POINT('',(-0.9,8.5,-3.625));
#1521=CARTESIAN_POINT('',(3.40151550426082,8.5,-10.5));
#1522=CARTESIAN_POINT('',(-9.5,8.5,-10.5));
#1523=CARTESIAN_POINT('',(3.40151550426082,8.5,-5.25));
#1524=CARTESIAN_POINT('Origin',(-17.,9.,-12.6));
#1525=CARTESIAN_POINT('',(3.40151550426082,9.,-12.6));
#1526=CARTESIAN_POINT('',(3.40151550426082,10.,-12.6));
#1527=CARTESIAN_POINT('',(3.40151550426081,12.25,-12.6));
#1528=CARTESIAN_POINT('',(17.,9.,-12.6));
#1529=CARTESIAN_POINT('',(-8.5,9.,-12.6));
#1530=CARTESIAN_POINT('',(17.,10.,-12.6));
#1531=CARTESIAN_POINT('',(17.,9.,-12.6));
#1532=CARTESIAN_POINT('',(2.,10.,-12.6));
#1533=CARTESIAN_POINT('Origin',(17.,9.,12.6));
#1534=CARTESIAN_POINT('',(17.,10.,12.6));
#1535=CARTESIAN_POINT('',(19.,10.,12.6));
#1536=CARTESIAN_POINT('',(17.,9.,12.6));
#1537=CARTESIAN_POINT('',(17.,9.,12.6));
#1538=CARTESIAN_POINT('',(8.5,9.,12.6));
#1539=CARTESIAN_POINT('Origin',(17.,9.,12.6));
#1540=CARTESIAN_POINT('',(-0.9,8.4,12.6));
#1541=CARTESIAN_POINT('',(-0.9,10.,12.6));
#1542=CARTESIAN_POINT('',(-0.9,12.25,12.6));
#1543=CARTESIAN_POINT('',(-17.,8.4,12.6));
#1544=CARTESIAN_POINT('',(8.5,8.4,12.6));
#1545=CARTESIAN_POINT('',(-17.,10.,12.6));
#1546=CARTESIAN_POINT('',(-17.,9.,12.6));
#1547=CARTESIAN_POINT('',(8.5,10.,12.6));
#1548=CARTESIAN_POINT('Origin',(0.,10.,0.));
#1549=CARTESIAN_POINT('',(-0.9,10.,-12.6));
#1550=CARTESIAN_POINT('',(-0.9,10.,-3.625));
#1551=CARTESIAN_POINT('',(-23.,10.,-7.5));
#1552=CARTESIAN_POINT('Origin',(-17.,10.,-7.50000000000001));
#1553=CARTESIAN_POINT('',(-23.,10.,7.5));
#1554=CARTESIAN_POINT('',(-23.,10.,-3.75));
#1555=CARTESIAN_POINT('',(-17.,10.,13.5));
#1556=CARTESIAN_POINT('Origin',(-17.,10.,7.50000000000001));
#1557=CARTESIAN_POINT('',(-0.9,10.,13.5));
#1558=CARTESIAN_POINT('',(-8.5,10.,13.5));
#1559=CARTESIAN_POINT('',(-0.9,10.,5.25));
#1560=CARTESIAN_POINT('',(-22.1,10.,7.5));
#1561=CARTESIAN_POINT('Origin',(-17.,10.,7.50000000000001));
#1562=CARTESIAN_POINT('',(-22.1,10.,-7.5));
#1563=CARTESIAN_POINT('',(-22.1,10.,3.75));
#1564=CARTESIAN_POINT('',(-17.,10.,-12.6));
#1565=CARTESIAN_POINT('Origin',(-17.,10.,-7.50000000000001));
#1566=CARTESIAN_POINT('',(-8.5,10.,-12.6));
#1567=CARTESIAN_POINT('Origin',(17.,9.,-7.50000000000001));
#1568=CARTESIAN_POINT('',(22.1,9.,-7.5));
#1569=CARTESIAN_POINT('Origin',(17.,9.,-7.50000000000001));
#1570=CARTESIAN_POINT('',(22.1,10.,-7.5));
#1571=CARTESIAN_POINT('',(22.1,9.,-7.50000000000001));
#1572=CARTESIAN_POINT('Origin',(17.,10.,-7.50000000000001));
#1573=CARTESIAN_POINT('Origin',(-17.,9.,-12.6));
#1574=CARTESIAN_POINT('',(-0.9,8.4,-12.6));
#1575=CARTESIAN_POINT('',(-0.9,12.25,-12.6));
#1576=CARTESIAN_POINT('',(-17.,8.4,-12.6));
#1577=CARTESIAN_POINT('',(-17.,9.,-12.6));
#1578=CARTESIAN_POINT('',(-8.5,8.4,-12.6));
#1579=CARTESIAN_POINT('Origin',(-17.,9.,-7.50000000000001));
#1580=CARTESIAN_POINT('',(-22.1,8.4,-7.5));
#1581=CARTESIAN_POINT('Origin',(-17.,8.4,-7.50000000000001));
#1582=CARTESIAN_POINT('',(-22.1,9.,-7.5));
#1583=CARTESIAN_POINT('Origin',(-22.1,9.,7.5));
#1584=CARTESIAN_POINT('',(-22.1,8.4,7.5));
#1585=CARTESIAN_POINT('',(-22.1,8.4,3.75));
#1586=CARTESIAN_POINT('',(-22.1,9.,7.5));
#1587=CARTESIAN_POINT('Origin',(-17.,9.,7.50000000000001));
#1588=CARTESIAN_POINT('Origin',(-17.,8.4,7.50000000000001));
#1589=CARTESIAN_POINT('Origin',(17.,9.,7.50000000000001));
#1590=CARTESIAN_POINT('',(22.1,9.,7.5));
#1591=CARTESIAN_POINT('Origin',(17.,9.,7.50000000000001));
#1592=CARTESIAN_POINT('',(22.1,10.,7.5));
#1593=CARTESIAN_POINT('Origin',(17.,10.,7.50000000000001));
#1594=CARTESIAN_POINT('',(22.1,9.,7.50000000000001));
#1595=CARTESIAN_POINT('Origin',(0.,8.4,0.));
#1596=CARTESIAN_POINT('',(-0.9,8.4,5.25));
#1597=CARTESIAN_POINT('',(-20.,8.4,9.5));
#1598=CARTESIAN_POINT('Origin',(-19.,8.4,9.5));
#1599=CARTESIAN_POINT('',(-20.,8.4,-9.5));
#1600=CARTESIAN_POINT('',(-20.,8.4,4.75));
#1601=CARTESIAN_POINT('',(-19.,8.4,-10.5));
#1602=CARTESIAN_POINT('Origin',(-19.,8.4,-9.5));
#1603=CARTESIAN_POINT('',(-0.900000000000001,8.4,-10.5));
#1604=CARTESIAN_POINT('',(-9.5,8.4,-10.5));
#1605=CARTESIAN_POINT('',(-0.9,8.4,-3.625));
#1606=CARTESIAN_POINT('Origin',(-0.9,15.5,10.5));
#1607=CARTESIAN_POINT('',(-0.9,9.,13.5));
#1608=CARTESIAN_POINT('Origin',(-17.,0.,13.5));
#1609=CARTESIAN_POINT('',(-8.5,10.,13.5));
#1610=CARTESIAN_POINT('',(-17.,0.,13.5));
#1611=CARTESIAN_POINT('Origin',(1.00075775213041,15.3,-8.875));
#1612=CARTESIAN_POINT('',(3.40151550426082,15.3,-9.6875));
#1613=CARTESIAN_POINT('',(-0.9,15.3,-8.0625));
#1614=CARTESIAN_POINT('Origin',(0.,9.,0.));
#1615=CARTESIAN_POINT('',(3.40151550426082,9.,-10.5));
#1616=CARTESIAN_POINT('',(3.40151550426082,9.,-5.25));
#1617=CARTESIAN_POINT('',(19.,9.,-10.5));
#1618=CARTESIAN_POINT('',(-9.5,9.,-10.5));
#1619=CARTESIAN_POINT('',(20.,9.,-9.5));
#1620=CARTESIAN_POINT('Origin',(19.,9.,-9.5));
#1621=CARTESIAN_POINT('',(20.,9.,9.5));
#1622=CARTESIAN_POINT('',(20.,9.,-4.75));
#1623=CARTESIAN_POINT('Origin',(19.,9.,9.5));
#1624=CARTESIAN_POINT('',(22.1,9.,-3.75));
#1625=CARTESIAN_POINT('Origin',(-17.,0.,7.50000000000001));
#1626=CARTESIAN_POINT('',(-23.,0.,7.5));
#1627=CARTESIAN_POINT('Origin',(-23.,0.,-7.5));
#1628=CARTESIAN_POINT('',(-23.,0.,-7.5));
#1629=CARTESIAN_POINT('Origin',(-17.,0.,-7.50000000000001));
#1630=CARTESIAN_POINT('Origin',(3.40151550426082,15.5,-10.5));
#1631=CARTESIAN_POINT('',(3.40151550426082,8.75,-10.5));
#1632=CARTESIAN_POINT('',(3.40151550426082,10.,-5.25));
#1633=CARTESIAN_POINT('Origin',(19.,2.,9.5));
#1634=CARTESIAN_POINT('',(20.,2.5,9.5));
#1635=CARTESIAN_POINT('Origin',(19.,2.5,9.5));
#1636=CARTESIAN_POINT('',(20.,2.,9.5));
#1637=CARTESIAN_POINT('Origin',(19.,2.,-9.5));
#1638=CARTESIAN_POINT('',(19.,2.5,-10.5));
#1639=CARTESIAN_POINT('',(20.,2.5,-9.5));
#1640=CARTESIAN_POINT('Origin',(19.,2.5,-9.5));
#1641=CARTESIAN_POINT('',(20.,2.,-9.5));
#1642=CARTESIAN_POINT('',(19.,2.,-10.5));
#1643=CARTESIAN_POINT('Origin',(-19.,2.,-10.5));
#1644=CARTESIAN_POINT('',(-19.,2.5,-10.5));
#1645=CARTESIAN_POINT('',(-9.5,2.5,-10.5));
#1646=CARTESIAN_POINT('',(-0.900000000000001,8.75,-10.5));
#1647=CARTESIAN_POINT('',(-19.,2.,-10.5));
#1648=CARTESIAN_POINT('Origin',(-19.,2.,-9.5));
#1649=CARTESIAN_POINT('',(-20.,2.5,-9.5));
#1650=CARTESIAN_POINT('Origin',(-19.,2.5,-9.5));
#1651=CARTESIAN_POINT('',(-20.,2.,-9.5));
#1652=CARTESIAN_POINT('Origin',(-20.,2.,9.5));
#1653=CARTESIAN_POINT('',(-20.,2.5,9.5));
#1654=CARTESIAN_POINT('',(-20.,2.5,4.75));
#1655=CARTESIAN_POINT('',(-20.,2.,9.5));
#1656=CARTESIAN_POINT('Origin',(-19.,2.,9.5));
#1657=CARTESIAN_POINT('Origin',(-19.,2.5,9.5));
#1658=CARTESIAN_POINT('Origin',(0.,2.5,0.));
#1659=CARTESIAN_POINT('',(20.,2.5,-4.75));
#1660=CARTESIAN_POINT('Origin',(20.,2.,-9.5));
#1661=CARTESIAN_POINT('Origin',(-0.9,15.5,-7.25));
#1662=CARTESIAN_POINT('Origin',(22.1,9.,-7.5));
#1663=CARTESIAN_POINT('',(22.1,10.,0.));
#1664=CARTESIAN_POINT('Origin',(21.,10.,0.));
#1665=UNCERTAINTY_MEASURE_WITH_UNIT(LENGTH_MEASURE(0.01),#1669,
'DISTANCE_ACCURACY_VALUE',
'Maximum model space distance between geometric entities at asserted c
onnectivities');
#1666=UNCERTAINTY_MEASURE_WITH_UNIT(LENGTH_MEASURE(0.01),#1669,
'DISTANCE_ACCURACY_VALUE',
'Maximum model space distance between geometric entities at asserted c
onnectivities');
#1667=(
GEOMETRIC_REPRESENTATION_CONTEXT(3)
GLOBAL_UNCERTAINTY_ASSIGNED_CONTEXT((#1665))
GLOBAL_UNIT_ASSIGNED_CONTEXT((#1669,#1671,#1672))
REPRESENTATION_CONTEXT('','3D')
);
#1668=(
GEOMETRIC_REPRESENTATION_CONTEXT(3)
GLOBAL_UNCERTAINTY_ASSIGNED_CONTEXT((#1666))
GLOBAL_UNIT_ASSIGNED_CONTEXT((#1669,#1671,#1672))
REPRESENTATION_CONTEXT('','3D')
);
#1669=(
LENGTH_UNIT()
NAMED_UNIT(*)
SI_UNIT(.MILLI.,.METRE.)
);
#1670=(
LENGTH_UNIT()
NAMED_UNIT(*)
SI_UNIT($,.METRE.)
);
#1671=(
NAMED_UNIT(*)
PLANE_ANGLE_UNIT()
SI_UNIT($,.RADIAN.)
);
#1672=(
NAMED_UNIT(*)
SI_UNIT($,.STERADIAN.)
SOLID_ANGLE_UNIT()
);
#1673=SHAPE_DEFINITION_REPRESENTATION(#1674,#1675);
#1674=PRODUCT_DEFINITION_SHAPE('',$,#1677);
#1675=SHAPE_REPRESENTATION('',(#993),#1667);
#1676=PRODUCT_DEFINITION_CONTEXT('part definition',#1681,'design');
#1677=PRODUCT_DEFINITION('2026-07-14-09-08-05-735','V3',#1678,#1676);
#1678=PRODUCT_DEFINITION_FORMATION('',$,#1683);
#1679=PRODUCT_RELATED_PRODUCT_CATEGORY('V3','V3',(#1683));
#1680=APPLICATION_PROTOCOL_DEFINITION('international standard',
'automotive_design',2009,#1681);
#1681=APPLICATION_CONTEXT(
'Core Data for Automotive Mechanical Design Process');
#1682=PRODUCT_CONTEXT('part definition',#1681,'mechanical');
#1683=PRODUCT('2026-07-14-09-08-05-735','V3',$,(#1682));
#1684=PRESENTATION_STYLE_ASSIGNMENT((#1685));
#1685=SURFACE_STYLE_USAGE(.BOTH.,#1686);
#1686=SURFACE_SIDE_STYLE('',(#1687));
#1687=SURFACE_STYLE_FILL_AREA(#1688);
#1688=FILL_AREA_STYLE('Steel - Satin',(#1689));
#1689=FILL_AREA_STYLE_COLOUR('Steel - Satin',#1690);
#1690=COLOUR_RGB('Steel - Satin',0.627450980392157,0.627450980392157,0.627450980392157);
ENDSEC;
END-ISO-10303-21;
